<?xml version="1.0" encoding="UTF-8"?>
<svg width="40px" height="40px" viewBox="0 0 40 40" version="1.1" xmlns="http://www.w3.org/2000/svg" xmlns:xlink="http://www.w3.org/1999/xlink">
    <!-- Generator: Sketch 51.2 (57519) - http://www.bohemiancoding.com/sketch -->
    <title>Fill 1</title>
    <desc>Created with Sketch.</desc>
    <defs></defs>
    <g id="Page-1" stroke="none" stroke-width="1" fill="none" fill-rule="evenodd">
        <g id="JLCPCB-new" transform="translate(-496.000000, -3017.000000)" fill="#FFFFFF">
            <g id="Group-8" transform="translate(372.000000, 2940.000000)">
                <path d="M140.057293,91.2804769 C140.057293,90.9367077 140.296124,90.7906647 140.369569,90.754033 C140.501708,90.6878422 140.612087,90.6556837 140.70687,90.6556837 C140.832239,90.6556837 140.93204,90.6773846 141.006935,90.7224186 L150.91791,96.4457802 C151.131111,96.5595438 151.177475,96.7650074 151.206732,96.9657561 C151.207517,96.9716195 151.208364,96.9773017 151.20921,96.9828025 C151.183822,97.2128685 151.05815,97.4327188 150.876321,97.5637706 L141.011106,103.25038 C140.899942,103.308652 140.787085,103.338151 140.675558,103.338151 C140.512106,103.338151 140.393566,103.274499 140.360804,103.254792 C140.247463,103.186849 140.057293,103.026963 140.057293,102.719342 L140.057293,91.2804769 Z M152.341224,93.91862 L142.461078,88.1985226 C141.91783,87.8880604 141.308753,87.7239434 140.699616,87.7239434 C140.07313,87.7239434 139.450634,87.8973694 138.903336,88.2233064 C137.788368,88.8602497 137.122711,90.0123934 137.122711,91.3052607 L137.122711,102.719342 C137.122711,103.979083 137.776882,105.130018 138.872628,105.798032 L138.878552,105.801538 C139.445436,106.12542 140.085945,106.303742 140.682086,106.303742 C141.299142,106.303742 141.914263,106.138597 142.461985,105.825778 L152.370844,100.103383 C153.47741,99.4284179 154.122393,98.257233 154.096158,96.9753673 C154.096158,95.6777851 153.439025,94.5345273 152.341224,93.91862 Z M143.999849,114.065177 C134.590171,114.065177 126.934823,106.409768 126.934823,96.9999093 C126.934823,87.5901714 134.590171,79.9348232 143.999849,79.9348232 C153.409708,79.9348232 161.065177,87.5901714 161.065177,96.9999093 C161.065177,101.557587 159.289932,105.842945 156.066348,109.066408 C152.842884,112.289932 148.557587,114.065177 143.999849,114.065177 Z M143.999849,77 C132.971911,77 124,85.9719112 124,96.9999093 C124,108.027968 132.971911,117 143.999849,117 C155.028028,117 164,108.027968 164,96.9999093 C164,85.9719112 155.028028,77 143.999849,77 Z" id="Fill-1"></path>
            </g>
        </g>
    </g>
</svg>