G04 #@! TF.GenerationSoftware,KiCad,Pcbnew,(5.0.0-rc2-83-gda392728d)*
G04 #@! TF.CreationDate,2018-08-15T23:30:18-03:00*
G04 #@! TF.ProjectId,fb15,666231352E6B696361645F7063620000,rev?*
G04 #@! TF.SameCoordinates,Original*
G04 #@! TF.FileFunction,Profile,NP*
%FSLAX46Y46*%
G04 Gerber Fmt 4.6, Leading zero omitted, Abs format (unit mm)*
G04 Created by KiCad (PCBNEW (5.0.0-rc2-83-gda392728d)) date 08/15/18 23:30:18*
%MOMM*%
%LPD*%
G01*
G04 APERTURE LIST*
%ADD10C,0.150000*%
G04 APERTURE END LIST*
D10*
X69000000Y-56000000D02*
X69000000Y-57000000D01*
X73000000Y-52000000D02*
X69000000Y-56000000D01*
X74000000Y-52000000D02*
X73000000Y-52000000D01*
X229000000Y-51000000D02*
X228000000Y-51000000D01*
X233000000Y-55000000D02*
X229000000Y-51000000D01*
X233000000Y-56000000D02*
X233000000Y-55000000D01*
X233000000Y-141000000D02*
X233000000Y-140000000D01*
X229000000Y-145000000D02*
X233000000Y-141000000D01*
X168000000Y-145000000D02*
X229000000Y-145000000D01*
X164000000Y-149000000D02*
X168000000Y-145000000D01*
X159000000Y-149000000D02*
X164000000Y-149000000D01*
X155000000Y-145000000D02*
X159000000Y-149000000D01*
X95000000Y-145000000D02*
X155000000Y-145000000D01*
X91000000Y-141000000D02*
X95000000Y-145000000D01*
X91000000Y-132000000D02*
X91000000Y-141000000D01*
X89000000Y-130000000D02*
X91000000Y-132000000D01*
X88000000Y-130000000D02*
X89000000Y-130000000D01*
X84000000Y-130000000D02*
X88000000Y-130000000D01*
X79000000Y-125000000D02*
X84000000Y-130000000D01*
X79000000Y-119000000D02*
X79000000Y-125000000D01*
X69000000Y-111000000D02*
X79000000Y-119000000D01*
X69000000Y-57000000D02*
X69000000Y-111000000D01*
X228000000Y-51000000D02*
X74000000Y-52000000D01*
X233000000Y-57000000D02*
X233000000Y-56000000D01*
X233000000Y-140000000D02*
X233000000Y-57000000D01*
M02*
