G04 #@! TF.GenerationSoftware,KiCad,Pcbnew,(5.0.0-rc2-83-gda392728d)*
G04 #@! TF.CreationDate,2018-08-15T23:30:17-03:00*
G04 #@! TF.ProjectId,fb15,666231352E6B696361645F7063620000,rev?*
G04 #@! TF.SameCoordinates,Original*
G04 #@! TF.FileFunction,Legend,Top*
G04 #@! TF.FilePolarity,Positive*
%FSLAX46Y46*%
G04 Gerber Fmt 4.6, Leading zero omitted, Abs format (unit mm)*
G04 Created by KiCad (PCBNEW (5.0.0-rc2-83-gda392728d)) date 08/15/18 23:30:17*
%MOMM*%
%LPD*%
G01*
G04 APERTURE LIST*
%ADD10C,0.120000*%
%ADD11C,0.150000*%
G04 APERTURE END LIST*
D10*
G04 #@! TO.C,J3*
X164630000Y-146820000D02*
X179870000Y-146820000D01*
X179870000Y-128790000D02*
X179860000Y-137780000D01*
X179870000Y-128790000D02*
X164630000Y-128790000D01*
X164630000Y-128790000D02*
X164630000Y-137790000D01*
X179860000Y-140120000D02*
X179870000Y-146820000D01*
X164630000Y-140110000D02*
X164630000Y-146820000D01*
G04 #@! TO.C,J6*
X142630000Y-146820000D02*
X157870000Y-146820000D01*
X157870000Y-128790000D02*
X157860000Y-137780000D01*
X157870000Y-128790000D02*
X142630000Y-128790000D01*
X142630000Y-128790000D02*
X142630000Y-137790000D01*
X157860000Y-140120000D02*
X157870000Y-146820000D01*
X142630000Y-140110000D02*
X142630000Y-146820000D01*
G04 #@! TO.C,J1*
X91630000Y-146820000D02*
X106870000Y-146820000D01*
X106870000Y-128790000D02*
X106860000Y-137780000D01*
X106870000Y-128790000D02*
X91630000Y-128790000D01*
X91630000Y-128790000D02*
X91630000Y-137790000D01*
X106860000Y-140120000D02*
X106870000Y-146820000D01*
X91630000Y-140110000D02*
X91630000Y-146820000D01*
G04 #@! TO.C,C3*
X118067820Y-117420864D02*
G75*
G03X112032518Y-117420000I-3017820J-1179136D01*
G01*
X118067820Y-119779136D02*
G75*
G02X112032518Y-119780000I-3017820J1179136D01*
G01*
X118067820Y-119779136D02*
G75*
G03X118067482Y-117420000I-3017820J1179136D01*
G01*
X115050000Y-115400000D02*
X115050000Y-121800000D01*
X115090000Y-115400000D02*
X115090000Y-121800000D01*
X115130000Y-115400000D02*
X115130000Y-121800000D01*
X115170000Y-115402000D02*
X115170000Y-121798000D01*
X115210000Y-115403000D02*
X115210000Y-121797000D01*
X115250000Y-115406000D02*
X115250000Y-121794000D01*
X115290000Y-115408000D02*
X115290000Y-121792000D01*
X115330000Y-115412000D02*
X115330000Y-117620000D01*
X115330000Y-119580000D02*
X115330000Y-121788000D01*
X115370000Y-115415000D02*
X115370000Y-117620000D01*
X115370000Y-119580000D02*
X115370000Y-121785000D01*
X115410000Y-115420000D02*
X115410000Y-117620000D01*
X115410000Y-119580000D02*
X115410000Y-121780000D01*
X115450000Y-115424000D02*
X115450000Y-117620000D01*
X115450000Y-119580000D02*
X115450000Y-121776000D01*
X115490000Y-115430000D02*
X115490000Y-117620000D01*
X115490000Y-119580000D02*
X115490000Y-121770000D01*
X115530000Y-115435000D02*
X115530000Y-117620000D01*
X115530000Y-119580000D02*
X115530000Y-121765000D01*
X115570000Y-115442000D02*
X115570000Y-117620000D01*
X115570000Y-119580000D02*
X115570000Y-121758000D01*
X115610000Y-115448000D02*
X115610000Y-117620000D01*
X115610000Y-119580000D02*
X115610000Y-121752000D01*
X115650000Y-115456000D02*
X115650000Y-117620000D01*
X115650000Y-119580000D02*
X115650000Y-121744000D01*
X115690000Y-115463000D02*
X115690000Y-117620000D01*
X115690000Y-119580000D02*
X115690000Y-121737000D01*
X115730000Y-115472000D02*
X115730000Y-117620000D01*
X115730000Y-119580000D02*
X115730000Y-121728000D01*
X115771000Y-115481000D02*
X115771000Y-117620000D01*
X115771000Y-119580000D02*
X115771000Y-121719000D01*
X115811000Y-115490000D02*
X115811000Y-117620000D01*
X115811000Y-119580000D02*
X115811000Y-121710000D01*
X115851000Y-115500000D02*
X115851000Y-117620000D01*
X115851000Y-119580000D02*
X115851000Y-121700000D01*
X115891000Y-115510000D02*
X115891000Y-117620000D01*
X115891000Y-119580000D02*
X115891000Y-121690000D01*
X115931000Y-115521000D02*
X115931000Y-117620000D01*
X115931000Y-119580000D02*
X115931000Y-121679000D01*
X115971000Y-115533000D02*
X115971000Y-117620000D01*
X115971000Y-119580000D02*
X115971000Y-121667000D01*
X116011000Y-115545000D02*
X116011000Y-117620000D01*
X116011000Y-119580000D02*
X116011000Y-121655000D01*
X116051000Y-115558000D02*
X116051000Y-117620000D01*
X116051000Y-119580000D02*
X116051000Y-121642000D01*
X116091000Y-115571000D02*
X116091000Y-117620000D01*
X116091000Y-119580000D02*
X116091000Y-121629000D01*
X116131000Y-115585000D02*
X116131000Y-117620000D01*
X116131000Y-119580000D02*
X116131000Y-121615000D01*
X116171000Y-115599000D02*
X116171000Y-117620000D01*
X116171000Y-119580000D02*
X116171000Y-121601000D01*
X116211000Y-115614000D02*
X116211000Y-117620000D01*
X116211000Y-119580000D02*
X116211000Y-121586000D01*
X116251000Y-115630000D02*
X116251000Y-117620000D01*
X116251000Y-119580000D02*
X116251000Y-121570000D01*
X116291000Y-115646000D02*
X116291000Y-117620000D01*
X116291000Y-119580000D02*
X116291000Y-121554000D01*
X116331000Y-115663000D02*
X116331000Y-117620000D01*
X116331000Y-119580000D02*
X116331000Y-121537000D01*
X116371000Y-115681000D02*
X116371000Y-117620000D01*
X116371000Y-119580000D02*
X116371000Y-121519000D01*
X116411000Y-115699000D02*
X116411000Y-117620000D01*
X116411000Y-119580000D02*
X116411000Y-121501000D01*
X116451000Y-115718000D02*
X116451000Y-117620000D01*
X116451000Y-119580000D02*
X116451000Y-121482000D01*
X116491000Y-115737000D02*
X116491000Y-117620000D01*
X116491000Y-119580000D02*
X116491000Y-121463000D01*
X116531000Y-115757000D02*
X116531000Y-117620000D01*
X116531000Y-119580000D02*
X116531000Y-121443000D01*
X116571000Y-115778000D02*
X116571000Y-117620000D01*
X116571000Y-119580000D02*
X116571000Y-121422000D01*
X116611000Y-115800000D02*
X116611000Y-117620000D01*
X116611000Y-119580000D02*
X116611000Y-121400000D01*
X116651000Y-115822000D02*
X116651000Y-117620000D01*
X116651000Y-119580000D02*
X116651000Y-121378000D01*
X116691000Y-115845000D02*
X116691000Y-117620000D01*
X116691000Y-119580000D02*
X116691000Y-121355000D01*
X116731000Y-115869000D02*
X116731000Y-117620000D01*
X116731000Y-119580000D02*
X116731000Y-121331000D01*
X116771000Y-115894000D02*
X116771000Y-117620000D01*
X116771000Y-119580000D02*
X116771000Y-121306000D01*
X116811000Y-115919000D02*
X116811000Y-117620000D01*
X116811000Y-119580000D02*
X116811000Y-121281000D01*
X116851000Y-115946000D02*
X116851000Y-117620000D01*
X116851000Y-119580000D02*
X116851000Y-121254000D01*
X116891000Y-115973000D02*
X116891000Y-117620000D01*
X116891000Y-119580000D02*
X116891000Y-121227000D01*
X116931000Y-116001000D02*
X116931000Y-117620000D01*
X116931000Y-119580000D02*
X116931000Y-121199000D01*
X116971000Y-116030000D02*
X116971000Y-117620000D01*
X116971000Y-119580000D02*
X116971000Y-121170000D01*
X117011000Y-116060000D02*
X117011000Y-117620000D01*
X117011000Y-119580000D02*
X117011000Y-121140000D01*
X117051000Y-116090000D02*
X117051000Y-117620000D01*
X117051000Y-119580000D02*
X117051000Y-121110000D01*
X117091000Y-116122000D02*
X117091000Y-117620000D01*
X117091000Y-119580000D02*
X117091000Y-121078000D01*
X117131000Y-116155000D02*
X117131000Y-117620000D01*
X117131000Y-119580000D02*
X117131000Y-121045000D01*
X117171000Y-116189000D02*
X117171000Y-117620000D01*
X117171000Y-119580000D02*
X117171000Y-121011000D01*
X117211000Y-116225000D02*
X117211000Y-117620000D01*
X117211000Y-119580000D02*
X117211000Y-120975000D01*
X117251000Y-116261000D02*
X117251000Y-117620000D01*
X117251000Y-119580000D02*
X117251000Y-120939000D01*
X117291000Y-116299000D02*
X117291000Y-120901000D01*
X117331000Y-116338000D02*
X117331000Y-120862000D01*
X117371000Y-116378000D02*
X117371000Y-120822000D01*
X117411000Y-116420000D02*
X117411000Y-120780000D01*
X117451000Y-116463000D02*
X117451000Y-120737000D01*
X117491000Y-116508000D02*
X117491000Y-120692000D01*
X117531000Y-116555000D02*
X117531000Y-120645000D01*
X117571000Y-116603000D02*
X117571000Y-120597000D01*
X117611000Y-116654000D02*
X117611000Y-120546000D01*
X117651000Y-116706000D02*
X117651000Y-120494000D01*
X117691000Y-116761000D02*
X117691000Y-120439000D01*
X117731000Y-116819000D02*
X117731000Y-120381000D01*
X117771000Y-116879000D02*
X117771000Y-120321000D01*
X117811000Y-116942000D02*
X117811000Y-120258000D01*
X117851000Y-117009000D02*
X117851000Y-120191000D01*
X117891000Y-117080000D02*
X117891000Y-120120000D01*
X117931000Y-117155000D02*
X117931000Y-120045000D01*
X117971000Y-117236000D02*
X117971000Y-119964000D01*
X118011000Y-117322000D02*
X118011000Y-119878000D01*
X118051000Y-117416000D02*
X118051000Y-119784000D01*
X118091000Y-117519000D02*
X118091000Y-119681000D01*
X118131000Y-117634000D02*
X118131000Y-119566000D01*
X118171000Y-117766000D02*
X118171000Y-119434000D01*
X118211000Y-117924000D02*
X118211000Y-119276000D01*
X118251000Y-118132000D02*
X118251000Y-119068000D01*
X111600000Y-118600000D02*
X112800000Y-118600000D01*
X112200000Y-117950000D02*
X112200000Y-119250000D01*
G04 #@! TO.C,U1*
X124610000Y-65870000D02*
G75*
G02X122610000Y-65870000I-1000000J0D01*
G01*
X122610000Y-65870000D02*
X120960000Y-65870000D01*
X120960000Y-65870000D02*
X120960000Y-86310000D01*
X120960000Y-86310000D02*
X126260000Y-86310000D01*
X126260000Y-86310000D02*
X126260000Y-65870000D01*
X126260000Y-65870000D02*
X124610000Y-65870000D01*
X118470000Y-65810000D02*
X118470000Y-86370000D01*
X118470000Y-86370000D02*
X128750000Y-86370000D01*
X128750000Y-86370000D02*
X128750000Y-65810000D01*
X128750000Y-65810000D02*
X118470000Y-65810000D01*
G04 #@! TO.C,REF\002A\002A*
X163586000Y-66600000D02*
G75*
G03X163586000Y-66600000I-2286000J0D01*
G01*
X163586000Y-144600000D02*
G75*
G03X163586000Y-144600000I-2286000J0D01*
G01*
G04 #@! TO.C,C1*
X224200000Y-84950000D02*
X224200000Y-86250000D01*
X223600000Y-85600000D02*
X224800000Y-85600000D01*
X230251000Y-85132000D02*
X230251000Y-86068000D01*
X230211000Y-84924000D02*
X230211000Y-86276000D01*
X230171000Y-84766000D02*
X230171000Y-86434000D01*
X230131000Y-84634000D02*
X230131000Y-86566000D01*
X230091000Y-84519000D02*
X230091000Y-86681000D01*
X230051000Y-84416000D02*
X230051000Y-86784000D01*
X230011000Y-84322000D02*
X230011000Y-86878000D01*
X229971000Y-84236000D02*
X229971000Y-86964000D01*
X229931000Y-84155000D02*
X229931000Y-87045000D01*
X229891000Y-84080000D02*
X229891000Y-87120000D01*
X229851000Y-84009000D02*
X229851000Y-87191000D01*
X229811000Y-83942000D02*
X229811000Y-87258000D01*
X229771000Y-83879000D02*
X229771000Y-87321000D01*
X229731000Y-83819000D02*
X229731000Y-87381000D01*
X229691000Y-83761000D02*
X229691000Y-87439000D01*
X229651000Y-83706000D02*
X229651000Y-87494000D01*
X229611000Y-83654000D02*
X229611000Y-87546000D01*
X229571000Y-83603000D02*
X229571000Y-87597000D01*
X229531000Y-83555000D02*
X229531000Y-87645000D01*
X229491000Y-83508000D02*
X229491000Y-87692000D01*
X229451000Y-83463000D02*
X229451000Y-87737000D01*
X229411000Y-83420000D02*
X229411000Y-87780000D01*
X229371000Y-83378000D02*
X229371000Y-87822000D01*
X229331000Y-83338000D02*
X229331000Y-87862000D01*
X229291000Y-83299000D02*
X229291000Y-87901000D01*
X229251000Y-86580000D02*
X229251000Y-87939000D01*
X229251000Y-83261000D02*
X229251000Y-84620000D01*
X229211000Y-86580000D02*
X229211000Y-87975000D01*
X229211000Y-83225000D02*
X229211000Y-84620000D01*
X229171000Y-86580000D02*
X229171000Y-88011000D01*
X229171000Y-83189000D02*
X229171000Y-84620000D01*
X229131000Y-86580000D02*
X229131000Y-88045000D01*
X229131000Y-83155000D02*
X229131000Y-84620000D01*
X229091000Y-86580000D02*
X229091000Y-88078000D01*
X229091000Y-83122000D02*
X229091000Y-84620000D01*
X229051000Y-86580000D02*
X229051000Y-88110000D01*
X229051000Y-83090000D02*
X229051000Y-84620000D01*
X229011000Y-86580000D02*
X229011000Y-88140000D01*
X229011000Y-83060000D02*
X229011000Y-84620000D01*
X228971000Y-86580000D02*
X228971000Y-88170000D01*
X228971000Y-83030000D02*
X228971000Y-84620000D01*
X228931000Y-86580000D02*
X228931000Y-88199000D01*
X228931000Y-83001000D02*
X228931000Y-84620000D01*
X228891000Y-86580000D02*
X228891000Y-88227000D01*
X228891000Y-82973000D02*
X228891000Y-84620000D01*
X228851000Y-86580000D02*
X228851000Y-88254000D01*
X228851000Y-82946000D02*
X228851000Y-84620000D01*
X228811000Y-86580000D02*
X228811000Y-88281000D01*
X228811000Y-82919000D02*
X228811000Y-84620000D01*
X228771000Y-86580000D02*
X228771000Y-88306000D01*
X228771000Y-82894000D02*
X228771000Y-84620000D01*
X228731000Y-86580000D02*
X228731000Y-88331000D01*
X228731000Y-82869000D02*
X228731000Y-84620000D01*
X228691000Y-86580000D02*
X228691000Y-88355000D01*
X228691000Y-82845000D02*
X228691000Y-84620000D01*
X228651000Y-86580000D02*
X228651000Y-88378000D01*
X228651000Y-82822000D02*
X228651000Y-84620000D01*
X228611000Y-86580000D02*
X228611000Y-88400000D01*
X228611000Y-82800000D02*
X228611000Y-84620000D01*
X228571000Y-86580000D02*
X228571000Y-88422000D01*
X228571000Y-82778000D02*
X228571000Y-84620000D01*
X228531000Y-86580000D02*
X228531000Y-88443000D01*
X228531000Y-82757000D02*
X228531000Y-84620000D01*
X228491000Y-86580000D02*
X228491000Y-88463000D01*
X228491000Y-82737000D02*
X228491000Y-84620000D01*
X228451000Y-86580000D02*
X228451000Y-88482000D01*
X228451000Y-82718000D02*
X228451000Y-84620000D01*
X228411000Y-86580000D02*
X228411000Y-88501000D01*
X228411000Y-82699000D02*
X228411000Y-84620000D01*
X228371000Y-86580000D02*
X228371000Y-88519000D01*
X228371000Y-82681000D02*
X228371000Y-84620000D01*
X228331000Y-86580000D02*
X228331000Y-88537000D01*
X228331000Y-82663000D02*
X228331000Y-84620000D01*
X228291000Y-86580000D02*
X228291000Y-88554000D01*
X228291000Y-82646000D02*
X228291000Y-84620000D01*
X228251000Y-86580000D02*
X228251000Y-88570000D01*
X228251000Y-82630000D02*
X228251000Y-84620000D01*
X228211000Y-86580000D02*
X228211000Y-88586000D01*
X228211000Y-82614000D02*
X228211000Y-84620000D01*
X228171000Y-86580000D02*
X228171000Y-88601000D01*
X228171000Y-82599000D02*
X228171000Y-84620000D01*
X228131000Y-86580000D02*
X228131000Y-88615000D01*
X228131000Y-82585000D02*
X228131000Y-84620000D01*
X228091000Y-86580000D02*
X228091000Y-88629000D01*
X228091000Y-82571000D02*
X228091000Y-84620000D01*
X228051000Y-86580000D02*
X228051000Y-88642000D01*
X228051000Y-82558000D02*
X228051000Y-84620000D01*
X228011000Y-86580000D02*
X228011000Y-88655000D01*
X228011000Y-82545000D02*
X228011000Y-84620000D01*
X227971000Y-86580000D02*
X227971000Y-88667000D01*
X227971000Y-82533000D02*
X227971000Y-84620000D01*
X227931000Y-86580000D02*
X227931000Y-88679000D01*
X227931000Y-82521000D02*
X227931000Y-84620000D01*
X227891000Y-86580000D02*
X227891000Y-88690000D01*
X227891000Y-82510000D02*
X227891000Y-84620000D01*
X227851000Y-86580000D02*
X227851000Y-88700000D01*
X227851000Y-82500000D02*
X227851000Y-84620000D01*
X227811000Y-86580000D02*
X227811000Y-88710000D01*
X227811000Y-82490000D02*
X227811000Y-84620000D01*
X227771000Y-86580000D02*
X227771000Y-88719000D01*
X227771000Y-82481000D02*
X227771000Y-84620000D01*
X227730000Y-86580000D02*
X227730000Y-88728000D01*
X227730000Y-82472000D02*
X227730000Y-84620000D01*
X227690000Y-86580000D02*
X227690000Y-88737000D01*
X227690000Y-82463000D02*
X227690000Y-84620000D01*
X227650000Y-86580000D02*
X227650000Y-88744000D01*
X227650000Y-82456000D02*
X227650000Y-84620000D01*
X227610000Y-86580000D02*
X227610000Y-88752000D01*
X227610000Y-82448000D02*
X227610000Y-84620000D01*
X227570000Y-86580000D02*
X227570000Y-88758000D01*
X227570000Y-82442000D02*
X227570000Y-84620000D01*
X227530000Y-86580000D02*
X227530000Y-88765000D01*
X227530000Y-82435000D02*
X227530000Y-84620000D01*
X227490000Y-86580000D02*
X227490000Y-88770000D01*
X227490000Y-82430000D02*
X227490000Y-84620000D01*
X227450000Y-86580000D02*
X227450000Y-88776000D01*
X227450000Y-82424000D02*
X227450000Y-84620000D01*
X227410000Y-86580000D02*
X227410000Y-88780000D01*
X227410000Y-82420000D02*
X227410000Y-84620000D01*
X227370000Y-86580000D02*
X227370000Y-88785000D01*
X227370000Y-82415000D02*
X227370000Y-84620000D01*
X227330000Y-86580000D02*
X227330000Y-88788000D01*
X227330000Y-82412000D02*
X227330000Y-84620000D01*
X227290000Y-82408000D02*
X227290000Y-88792000D01*
X227250000Y-82406000D02*
X227250000Y-88794000D01*
X227210000Y-82403000D02*
X227210000Y-88797000D01*
X227170000Y-82402000D02*
X227170000Y-88798000D01*
X227130000Y-82400000D02*
X227130000Y-88800000D01*
X227090000Y-82400000D02*
X227090000Y-88800000D01*
X227050000Y-82400000D02*
X227050000Y-88800000D01*
X230067820Y-86779136D02*
G75*
G03X230067482Y-84420000I-3017820J1179136D01*
G01*
X230067820Y-86779136D02*
G75*
G02X224032518Y-86780000I-3017820J1179136D01*
G01*
X230067820Y-84420864D02*
G75*
G03X224032518Y-84420000I-3017820J-1179136D01*
G01*
G04 #@! TO.C,C2*
X224490000Y-91290000D02*
X229610000Y-91290000D01*
X224490000Y-93910000D02*
X229610000Y-93910000D01*
X224490000Y-91290000D02*
X224490000Y-93910000D01*
X229610000Y-91290000D02*
X229610000Y-93910000D01*
G04 #@! TO.C,C4*
X137200000Y-117950000D02*
X137200000Y-119250000D01*
X136600000Y-118600000D02*
X137800000Y-118600000D01*
X143251000Y-118132000D02*
X143251000Y-119068000D01*
X143211000Y-117924000D02*
X143211000Y-119276000D01*
X143171000Y-117766000D02*
X143171000Y-119434000D01*
X143131000Y-117634000D02*
X143131000Y-119566000D01*
X143091000Y-117519000D02*
X143091000Y-119681000D01*
X143051000Y-117416000D02*
X143051000Y-119784000D01*
X143011000Y-117322000D02*
X143011000Y-119878000D01*
X142971000Y-117236000D02*
X142971000Y-119964000D01*
X142931000Y-117155000D02*
X142931000Y-120045000D01*
X142891000Y-117080000D02*
X142891000Y-120120000D01*
X142851000Y-117009000D02*
X142851000Y-120191000D01*
X142811000Y-116942000D02*
X142811000Y-120258000D01*
X142771000Y-116879000D02*
X142771000Y-120321000D01*
X142731000Y-116819000D02*
X142731000Y-120381000D01*
X142691000Y-116761000D02*
X142691000Y-120439000D01*
X142651000Y-116706000D02*
X142651000Y-120494000D01*
X142611000Y-116654000D02*
X142611000Y-120546000D01*
X142571000Y-116603000D02*
X142571000Y-120597000D01*
X142531000Y-116555000D02*
X142531000Y-120645000D01*
X142491000Y-116508000D02*
X142491000Y-120692000D01*
X142451000Y-116463000D02*
X142451000Y-120737000D01*
X142411000Y-116420000D02*
X142411000Y-120780000D01*
X142371000Y-116378000D02*
X142371000Y-120822000D01*
X142331000Y-116338000D02*
X142331000Y-120862000D01*
X142291000Y-116299000D02*
X142291000Y-120901000D01*
X142251000Y-119580000D02*
X142251000Y-120939000D01*
X142251000Y-116261000D02*
X142251000Y-117620000D01*
X142211000Y-119580000D02*
X142211000Y-120975000D01*
X142211000Y-116225000D02*
X142211000Y-117620000D01*
X142171000Y-119580000D02*
X142171000Y-121011000D01*
X142171000Y-116189000D02*
X142171000Y-117620000D01*
X142131000Y-119580000D02*
X142131000Y-121045000D01*
X142131000Y-116155000D02*
X142131000Y-117620000D01*
X142091000Y-119580000D02*
X142091000Y-121078000D01*
X142091000Y-116122000D02*
X142091000Y-117620000D01*
X142051000Y-119580000D02*
X142051000Y-121110000D01*
X142051000Y-116090000D02*
X142051000Y-117620000D01*
X142011000Y-119580000D02*
X142011000Y-121140000D01*
X142011000Y-116060000D02*
X142011000Y-117620000D01*
X141971000Y-119580000D02*
X141971000Y-121170000D01*
X141971000Y-116030000D02*
X141971000Y-117620000D01*
X141931000Y-119580000D02*
X141931000Y-121199000D01*
X141931000Y-116001000D02*
X141931000Y-117620000D01*
X141891000Y-119580000D02*
X141891000Y-121227000D01*
X141891000Y-115973000D02*
X141891000Y-117620000D01*
X141851000Y-119580000D02*
X141851000Y-121254000D01*
X141851000Y-115946000D02*
X141851000Y-117620000D01*
X141811000Y-119580000D02*
X141811000Y-121281000D01*
X141811000Y-115919000D02*
X141811000Y-117620000D01*
X141771000Y-119580000D02*
X141771000Y-121306000D01*
X141771000Y-115894000D02*
X141771000Y-117620000D01*
X141731000Y-119580000D02*
X141731000Y-121331000D01*
X141731000Y-115869000D02*
X141731000Y-117620000D01*
X141691000Y-119580000D02*
X141691000Y-121355000D01*
X141691000Y-115845000D02*
X141691000Y-117620000D01*
X141651000Y-119580000D02*
X141651000Y-121378000D01*
X141651000Y-115822000D02*
X141651000Y-117620000D01*
X141611000Y-119580000D02*
X141611000Y-121400000D01*
X141611000Y-115800000D02*
X141611000Y-117620000D01*
X141571000Y-119580000D02*
X141571000Y-121422000D01*
X141571000Y-115778000D02*
X141571000Y-117620000D01*
X141531000Y-119580000D02*
X141531000Y-121443000D01*
X141531000Y-115757000D02*
X141531000Y-117620000D01*
X141491000Y-119580000D02*
X141491000Y-121463000D01*
X141491000Y-115737000D02*
X141491000Y-117620000D01*
X141451000Y-119580000D02*
X141451000Y-121482000D01*
X141451000Y-115718000D02*
X141451000Y-117620000D01*
X141411000Y-119580000D02*
X141411000Y-121501000D01*
X141411000Y-115699000D02*
X141411000Y-117620000D01*
X141371000Y-119580000D02*
X141371000Y-121519000D01*
X141371000Y-115681000D02*
X141371000Y-117620000D01*
X141331000Y-119580000D02*
X141331000Y-121537000D01*
X141331000Y-115663000D02*
X141331000Y-117620000D01*
X141291000Y-119580000D02*
X141291000Y-121554000D01*
X141291000Y-115646000D02*
X141291000Y-117620000D01*
X141251000Y-119580000D02*
X141251000Y-121570000D01*
X141251000Y-115630000D02*
X141251000Y-117620000D01*
X141211000Y-119580000D02*
X141211000Y-121586000D01*
X141211000Y-115614000D02*
X141211000Y-117620000D01*
X141171000Y-119580000D02*
X141171000Y-121601000D01*
X141171000Y-115599000D02*
X141171000Y-117620000D01*
X141131000Y-119580000D02*
X141131000Y-121615000D01*
X141131000Y-115585000D02*
X141131000Y-117620000D01*
X141091000Y-119580000D02*
X141091000Y-121629000D01*
X141091000Y-115571000D02*
X141091000Y-117620000D01*
X141051000Y-119580000D02*
X141051000Y-121642000D01*
X141051000Y-115558000D02*
X141051000Y-117620000D01*
X141011000Y-119580000D02*
X141011000Y-121655000D01*
X141011000Y-115545000D02*
X141011000Y-117620000D01*
X140971000Y-119580000D02*
X140971000Y-121667000D01*
X140971000Y-115533000D02*
X140971000Y-117620000D01*
X140931000Y-119580000D02*
X140931000Y-121679000D01*
X140931000Y-115521000D02*
X140931000Y-117620000D01*
X140891000Y-119580000D02*
X140891000Y-121690000D01*
X140891000Y-115510000D02*
X140891000Y-117620000D01*
X140851000Y-119580000D02*
X140851000Y-121700000D01*
X140851000Y-115500000D02*
X140851000Y-117620000D01*
X140811000Y-119580000D02*
X140811000Y-121710000D01*
X140811000Y-115490000D02*
X140811000Y-117620000D01*
X140771000Y-119580000D02*
X140771000Y-121719000D01*
X140771000Y-115481000D02*
X140771000Y-117620000D01*
X140730000Y-119580000D02*
X140730000Y-121728000D01*
X140730000Y-115472000D02*
X140730000Y-117620000D01*
X140690000Y-119580000D02*
X140690000Y-121737000D01*
X140690000Y-115463000D02*
X140690000Y-117620000D01*
X140650000Y-119580000D02*
X140650000Y-121744000D01*
X140650000Y-115456000D02*
X140650000Y-117620000D01*
X140610000Y-119580000D02*
X140610000Y-121752000D01*
X140610000Y-115448000D02*
X140610000Y-117620000D01*
X140570000Y-119580000D02*
X140570000Y-121758000D01*
X140570000Y-115442000D02*
X140570000Y-117620000D01*
X140530000Y-119580000D02*
X140530000Y-121765000D01*
X140530000Y-115435000D02*
X140530000Y-117620000D01*
X140490000Y-119580000D02*
X140490000Y-121770000D01*
X140490000Y-115430000D02*
X140490000Y-117620000D01*
X140450000Y-119580000D02*
X140450000Y-121776000D01*
X140450000Y-115424000D02*
X140450000Y-117620000D01*
X140410000Y-119580000D02*
X140410000Y-121780000D01*
X140410000Y-115420000D02*
X140410000Y-117620000D01*
X140370000Y-119580000D02*
X140370000Y-121785000D01*
X140370000Y-115415000D02*
X140370000Y-117620000D01*
X140330000Y-119580000D02*
X140330000Y-121788000D01*
X140330000Y-115412000D02*
X140330000Y-117620000D01*
X140290000Y-115408000D02*
X140290000Y-121792000D01*
X140250000Y-115406000D02*
X140250000Y-121794000D01*
X140210000Y-115403000D02*
X140210000Y-121797000D01*
X140170000Y-115402000D02*
X140170000Y-121798000D01*
X140130000Y-115400000D02*
X140130000Y-121800000D01*
X140090000Y-115400000D02*
X140090000Y-121800000D01*
X140050000Y-115400000D02*
X140050000Y-121800000D01*
X143067820Y-119779136D02*
G75*
G03X143067482Y-117420000I-3017820J1179136D01*
G01*
X143067820Y-119779136D02*
G75*
G02X137032518Y-119780000I-3017820J1179136D01*
G01*
X143067820Y-117420864D02*
G75*
G03X137032518Y-117420000I-3017820J-1179136D01*
G01*
G04 #@! TO.C,C5*
X112200000Y-96950000D02*
X112200000Y-98250000D01*
X111600000Y-97600000D02*
X112800000Y-97600000D01*
X118251000Y-97132000D02*
X118251000Y-98068000D01*
X118211000Y-96924000D02*
X118211000Y-98276000D01*
X118171000Y-96766000D02*
X118171000Y-98434000D01*
X118131000Y-96634000D02*
X118131000Y-98566000D01*
X118091000Y-96519000D02*
X118091000Y-98681000D01*
X118051000Y-96416000D02*
X118051000Y-98784000D01*
X118011000Y-96322000D02*
X118011000Y-98878000D01*
X117971000Y-96236000D02*
X117971000Y-98964000D01*
X117931000Y-96155000D02*
X117931000Y-99045000D01*
X117891000Y-96080000D02*
X117891000Y-99120000D01*
X117851000Y-96009000D02*
X117851000Y-99191000D01*
X117811000Y-95942000D02*
X117811000Y-99258000D01*
X117771000Y-95879000D02*
X117771000Y-99321000D01*
X117731000Y-95819000D02*
X117731000Y-99381000D01*
X117691000Y-95761000D02*
X117691000Y-99439000D01*
X117651000Y-95706000D02*
X117651000Y-99494000D01*
X117611000Y-95654000D02*
X117611000Y-99546000D01*
X117571000Y-95603000D02*
X117571000Y-99597000D01*
X117531000Y-95555000D02*
X117531000Y-99645000D01*
X117491000Y-95508000D02*
X117491000Y-99692000D01*
X117451000Y-95463000D02*
X117451000Y-99737000D01*
X117411000Y-95420000D02*
X117411000Y-99780000D01*
X117371000Y-95378000D02*
X117371000Y-99822000D01*
X117331000Y-95338000D02*
X117331000Y-99862000D01*
X117291000Y-95299000D02*
X117291000Y-99901000D01*
X117251000Y-98580000D02*
X117251000Y-99939000D01*
X117251000Y-95261000D02*
X117251000Y-96620000D01*
X117211000Y-98580000D02*
X117211000Y-99975000D01*
X117211000Y-95225000D02*
X117211000Y-96620000D01*
X117171000Y-98580000D02*
X117171000Y-100011000D01*
X117171000Y-95189000D02*
X117171000Y-96620000D01*
X117131000Y-98580000D02*
X117131000Y-100045000D01*
X117131000Y-95155000D02*
X117131000Y-96620000D01*
X117091000Y-98580000D02*
X117091000Y-100078000D01*
X117091000Y-95122000D02*
X117091000Y-96620000D01*
X117051000Y-98580000D02*
X117051000Y-100110000D01*
X117051000Y-95090000D02*
X117051000Y-96620000D01*
X117011000Y-98580000D02*
X117011000Y-100140000D01*
X117011000Y-95060000D02*
X117011000Y-96620000D01*
X116971000Y-98580000D02*
X116971000Y-100170000D01*
X116971000Y-95030000D02*
X116971000Y-96620000D01*
X116931000Y-98580000D02*
X116931000Y-100199000D01*
X116931000Y-95001000D02*
X116931000Y-96620000D01*
X116891000Y-98580000D02*
X116891000Y-100227000D01*
X116891000Y-94973000D02*
X116891000Y-96620000D01*
X116851000Y-98580000D02*
X116851000Y-100254000D01*
X116851000Y-94946000D02*
X116851000Y-96620000D01*
X116811000Y-98580000D02*
X116811000Y-100281000D01*
X116811000Y-94919000D02*
X116811000Y-96620000D01*
X116771000Y-98580000D02*
X116771000Y-100306000D01*
X116771000Y-94894000D02*
X116771000Y-96620000D01*
X116731000Y-98580000D02*
X116731000Y-100331000D01*
X116731000Y-94869000D02*
X116731000Y-96620000D01*
X116691000Y-98580000D02*
X116691000Y-100355000D01*
X116691000Y-94845000D02*
X116691000Y-96620000D01*
X116651000Y-98580000D02*
X116651000Y-100378000D01*
X116651000Y-94822000D02*
X116651000Y-96620000D01*
X116611000Y-98580000D02*
X116611000Y-100400000D01*
X116611000Y-94800000D02*
X116611000Y-96620000D01*
X116571000Y-98580000D02*
X116571000Y-100422000D01*
X116571000Y-94778000D02*
X116571000Y-96620000D01*
X116531000Y-98580000D02*
X116531000Y-100443000D01*
X116531000Y-94757000D02*
X116531000Y-96620000D01*
X116491000Y-98580000D02*
X116491000Y-100463000D01*
X116491000Y-94737000D02*
X116491000Y-96620000D01*
X116451000Y-98580000D02*
X116451000Y-100482000D01*
X116451000Y-94718000D02*
X116451000Y-96620000D01*
X116411000Y-98580000D02*
X116411000Y-100501000D01*
X116411000Y-94699000D02*
X116411000Y-96620000D01*
X116371000Y-98580000D02*
X116371000Y-100519000D01*
X116371000Y-94681000D02*
X116371000Y-96620000D01*
X116331000Y-98580000D02*
X116331000Y-100537000D01*
X116331000Y-94663000D02*
X116331000Y-96620000D01*
X116291000Y-98580000D02*
X116291000Y-100554000D01*
X116291000Y-94646000D02*
X116291000Y-96620000D01*
X116251000Y-98580000D02*
X116251000Y-100570000D01*
X116251000Y-94630000D02*
X116251000Y-96620000D01*
X116211000Y-98580000D02*
X116211000Y-100586000D01*
X116211000Y-94614000D02*
X116211000Y-96620000D01*
X116171000Y-98580000D02*
X116171000Y-100601000D01*
X116171000Y-94599000D02*
X116171000Y-96620000D01*
X116131000Y-98580000D02*
X116131000Y-100615000D01*
X116131000Y-94585000D02*
X116131000Y-96620000D01*
X116091000Y-98580000D02*
X116091000Y-100629000D01*
X116091000Y-94571000D02*
X116091000Y-96620000D01*
X116051000Y-98580000D02*
X116051000Y-100642000D01*
X116051000Y-94558000D02*
X116051000Y-96620000D01*
X116011000Y-98580000D02*
X116011000Y-100655000D01*
X116011000Y-94545000D02*
X116011000Y-96620000D01*
X115971000Y-98580000D02*
X115971000Y-100667000D01*
X115971000Y-94533000D02*
X115971000Y-96620000D01*
X115931000Y-98580000D02*
X115931000Y-100679000D01*
X115931000Y-94521000D02*
X115931000Y-96620000D01*
X115891000Y-98580000D02*
X115891000Y-100690000D01*
X115891000Y-94510000D02*
X115891000Y-96620000D01*
X115851000Y-98580000D02*
X115851000Y-100700000D01*
X115851000Y-94500000D02*
X115851000Y-96620000D01*
X115811000Y-98580000D02*
X115811000Y-100710000D01*
X115811000Y-94490000D02*
X115811000Y-96620000D01*
X115771000Y-98580000D02*
X115771000Y-100719000D01*
X115771000Y-94481000D02*
X115771000Y-96620000D01*
X115730000Y-98580000D02*
X115730000Y-100728000D01*
X115730000Y-94472000D02*
X115730000Y-96620000D01*
X115690000Y-98580000D02*
X115690000Y-100737000D01*
X115690000Y-94463000D02*
X115690000Y-96620000D01*
X115650000Y-98580000D02*
X115650000Y-100744000D01*
X115650000Y-94456000D02*
X115650000Y-96620000D01*
X115610000Y-98580000D02*
X115610000Y-100752000D01*
X115610000Y-94448000D02*
X115610000Y-96620000D01*
X115570000Y-98580000D02*
X115570000Y-100758000D01*
X115570000Y-94442000D02*
X115570000Y-96620000D01*
X115530000Y-98580000D02*
X115530000Y-100765000D01*
X115530000Y-94435000D02*
X115530000Y-96620000D01*
X115490000Y-98580000D02*
X115490000Y-100770000D01*
X115490000Y-94430000D02*
X115490000Y-96620000D01*
X115450000Y-98580000D02*
X115450000Y-100776000D01*
X115450000Y-94424000D02*
X115450000Y-96620000D01*
X115410000Y-98580000D02*
X115410000Y-100780000D01*
X115410000Y-94420000D02*
X115410000Y-96620000D01*
X115370000Y-98580000D02*
X115370000Y-100785000D01*
X115370000Y-94415000D02*
X115370000Y-96620000D01*
X115330000Y-98580000D02*
X115330000Y-100788000D01*
X115330000Y-94412000D02*
X115330000Y-96620000D01*
X115290000Y-94408000D02*
X115290000Y-100792000D01*
X115250000Y-94406000D02*
X115250000Y-100794000D01*
X115210000Y-94403000D02*
X115210000Y-100797000D01*
X115170000Y-94402000D02*
X115170000Y-100798000D01*
X115130000Y-94400000D02*
X115130000Y-100800000D01*
X115090000Y-94400000D02*
X115090000Y-100800000D01*
X115050000Y-94400000D02*
X115050000Y-100800000D01*
X118067820Y-98779136D02*
G75*
G03X118067482Y-96420000I-3017820J1179136D01*
G01*
X118067820Y-98779136D02*
G75*
G02X112032518Y-98780000I-3017820J1179136D01*
G01*
X118067820Y-96420864D02*
G75*
G03X112032518Y-96420000I-3017820J-1179136D01*
G01*
G04 #@! TO.C,C6*
X137200000Y-96950000D02*
X137200000Y-98250000D01*
X136600000Y-97600000D02*
X137800000Y-97600000D01*
X143251000Y-97132000D02*
X143251000Y-98068000D01*
X143211000Y-96924000D02*
X143211000Y-98276000D01*
X143171000Y-96766000D02*
X143171000Y-98434000D01*
X143131000Y-96634000D02*
X143131000Y-98566000D01*
X143091000Y-96519000D02*
X143091000Y-98681000D01*
X143051000Y-96416000D02*
X143051000Y-98784000D01*
X143011000Y-96322000D02*
X143011000Y-98878000D01*
X142971000Y-96236000D02*
X142971000Y-98964000D01*
X142931000Y-96155000D02*
X142931000Y-99045000D01*
X142891000Y-96080000D02*
X142891000Y-99120000D01*
X142851000Y-96009000D02*
X142851000Y-99191000D01*
X142811000Y-95942000D02*
X142811000Y-99258000D01*
X142771000Y-95879000D02*
X142771000Y-99321000D01*
X142731000Y-95819000D02*
X142731000Y-99381000D01*
X142691000Y-95761000D02*
X142691000Y-99439000D01*
X142651000Y-95706000D02*
X142651000Y-99494000D01*
X142611000Y-95654000D02*
X142611000Y-99546000D01*
X142571000Y-95603000D02*
X142571000Y-99597000D01*
X142531000Y-95555000D02*
X142531000Y-99645000D01*
X142491000Y-95508000D02*
X142491000Y-99692000D01*
X142451000Y-95463000D02*
X142451000Y-99737000D01*
X142411000Y-95420000D02*
X142411000Y-99780000D01*
X142371000Y-95378000D02*
X142371000Y-99822000D01*
X142331000Y-95338000D02*
X142331000Y-99862000D01*
X142291000Y-95299000D02*
X142291000Y-99901000D01*
X142251000Y-98580000D02*
X142251000Y-99939000D01*
X142251000Y-95261000D02*
X142251000Y-96620000D01*
X142211000Y-98580000D02*
X142211000Y-99975000D01*
X142211000Y-95225000D02*
X142211000Y-96620000D01*
X142171000Y-98580000D02*
X142171000Y-100011000D01*
X142171000Y-95189000D02*
X142171000Y-96620000D01*
X142131000Y-98580000D02*
X142131000Y-100045000D01*
X142131000Y-95155000D02*
X142131000Y-96620000D01*
X142091000Y-98580000D02*
X142091000Y-100078000D01*
X142091000Y-95122000D02*
X142091000Y-96620000D01*
X142051000Y-98580000D02*
X142051000Y-100110000D01*
X142051000Y-95090000D02*
X142051000Y-96620000D01*
X142011000Y-98580000D02*
X142011000Y-100140000D01*
X142011000Y-95060000D02*
X142011000Y-96620000D01*
X141971000Y-98580000D02*
X141971000Y-100170000D01*
X141971000Y-95030000D02*
X141971000Y-96620000D01*
X141931000Y-98580000D02*
X141931000Y-100199000D01*
X141931000Y-95001000D02*
X141931000Y-96620000D01*
X141891000Y-98580000D02*
X141891000Y-100227000D01*
X141891000Y-94973000D02*
X141891000Y-96620000D01*
X141851000Y-98580000D02*
X141851000Y-100254000D01*
X141851000Y-94946000D02*
X141851000Y-96620000D01*
X141811000Y-98580000D02*
X141811000Y-100281000D01*
X141811000Y-94919000D02*
X141811000Y-96620000D01*
X141771000Y-98580000D02*
X141771000Y-100306000D01*
X141771000Y-94894000D02*
X141771000Y-96620000D01*
X141731000Y-98580000D02*
X141731000Y-100331000D01*
X141731000Y-94869000D02*
X141731000Y-96620000D01*
X141691000Y-98580000D02*
X141691000Y-100355000D01*
X141691000Y-94845000D02*
X141691000Y-96620000D01*
X141651000Y-98580000D02*
X141651000Y-100378000D01*
X141651000Y-94822000D02*
X141651000Y-96620000D01*
X141611000Y-98580000D02*
X141611000Y-100400000D01*
X141611000Y-94800000D02*
X141611000Y-96620000D01*
X141571000Y-98580000D02*
X141571000Y-100422000D01*
X141571000Y-94778000D02*
X141571000Y-96620000D01*
X141531000Y-98580000D02*
X141531000Y-100443000D01*
X141531000Y-94757000D02*
X141531000Y-96620000D01*
X141491000Y-98580000D02*
X141491000Y-100463000D01*
X141491000Y-94737000D02*
X141491000Y-96620000D01*
X141451000Y-98580000D02*
X141451000Y-100482000D01*
X141451000Y-94718000D02*
X141451000Y-96620000D01*
X141411000Y-98580000D02*
X141411000Y-100501000D01*
X141411000Y-94699000D02*
X141411000Y-96620000D01*
X141371000Y-98580000D02*
X141371000Y-100519000D01*
X141371000Y-94681000D02*
X141371000Y-96620000D01*
X141331000Y-98580000D02*
X141331000Y-100537000D01*
X141331000Y-94663000D02*
X141331000Y-96620000D01*
X141291000Y-98580000D02*
X141291000Y-100554000D01*
X141291000Y-94646000D02*
X141291000Y-96620000D01*
X141251000Y-98580000D02*
X141251000Y-100570000D01*
X141251000Y-94630000D02*
X141251000Y-96620000D01*
X141211000Y-98580000D02*
X141211000Y-100586000D01*
X141211000Y-94614000D02*
X141211000Y-96620000D01*
X141171000Y-98580000D02*
X141171000Y-100601000D01*
X141171000Y-94599000D02*
X141171000Y-96620000D01*
X141131000Y-98580000D02*
X141131000Y-100615000D01*
X141131000Y-94585000D02*
X141131000Y-96620000D01*
X141091000Y-98580000D02*
X141091000Y-100629000D01*
X141091000Y-94571000D02*
X141091000Y-96620000D01*
X141051000Y-98580000D02*
X141051000Y-100642000D01*
X141051000Y-94558000D02*
X141051000Y-96620000D01*
X141011000Y-98580000D02*
X141011000Y-100655000D01*
X141011000Y-94545000D02*
X141011000Y-96620000D01*
X140971000Y-98580000D02*
X140971000Y-100667000D01*
X140971000Y-94533000D02*
X140971000Y-96620000D01*
X140931000Y-98580000D02*
X140931000Y-100679000D01*
X140931000Y-94521000D02*
X140931000Y-96620000D01*
X140891000Y-98580000D02*
X140891000Y-100690000D01*
X140891000Y-94510000D02*
X140891000Y-96620000D01*
X140851000Y-98580000D02*
X140851000Y-100700000D01*
X140851000Y-94500000D02*
X140851000Y-96620000D01*
X140811000Y-98580000D02*
X140811000Y-100710000D01*
X140811000Y-94490000D02*
X140811000Y-96620000D01*
X140771000Y-98580000D02*
X140771000Y-100719000D01*
X140771000Y-94481000D02*
X140771000Y-96620000D01*
X140730000Y-98580000D02*
X140730000Y-100728000D01*
X140730000Y-94472000D02*
X140730000Y-96620000D01*
X140690000Y-98580000D02*
X140690000Y-100737000D01*
X140690000Y-94463000D02*
X140690000Y-96620000D01*
X140650000Y-98580000D02*
X140650000Y-100744000D01*
X140650000Y-94456000D02*
X140650000Y-96620000D01*
X140610000Y-98580000D02*
X140610000Y-100752000D01*
X140610000Y-94448000D02*
X140610000Y-96620000D01*
X140570000Y-98580000D02*
X140570000Y-100758000D01*
X140570000Y-94442000D02*
X140570000Y-96620000D01*
X140530000Y-98580000D02*
X140530000Y-100765000D01*
X140530000Y-94435000D02*
X140530000Y-96620000D01*
X140490000Y-98580000D02*
X140490000Y-100770000D01*
X140490000Y-94430000D02*
X140490000Y-96620000D01*
X140450000Y-98580000D02*
X140450000Y-100776000D01*
X140450000Y-94424000D02*
X140450000Y-96620000D01*
X140410000Y-98580000D02*
X140410000Y-100780000D01*
X140410000Y-94420000D02*
X140410000Y-96620000D01*
X140370000Y-98580000D02*
X140370000Y-100785000D01*
X140370000Y-94415000D02*
X140370000Y-96620000D01*
X140330000Y-98580000D02*
X140330000Y-100788000D01*
X140330000Y-94412000D02*
X140330000Y-96620000D01*
X140290000Y-94408000D02*
X140290000Y-100792000D01*
X140250000Y-94406000D02*
X140250000Y-100794000D01*
X140210000Y-94403000D02*
X140210000Y-100797000D01*
X140170000Y-94402000D02*
X140170000Y-100798000D01*
X140130000Y-94400000D02*
X140130000Y-100800000D01*
X140090000Y-94400000D02*
X140090000Y-100800000D01*
X140050000Y-94400000D02*
X140050000Y-100800000D01*
X143067820Y-98779136D02*
G75*
G03X143067482Y-96420000I-3017820J1179136D01*
G01*
X143067820Y-98779136D02*
G75*
G02X137032518Y-98780000I-3017820J1179136D01*
G01*
X143067820Y-96420864D02*
G75*
G03X137032518Y-96420000I-3017820J-1179136D01*
G01*
G04 #@! TO.C,D1*
X223060000Y-69600462D02*
G75*
G03X217510000Y-68055170I-2990000J462D01*
G01*
X223060000Y-69599538D02*
G75*
G02X217510000Y-71144830I-2990000J-462D01*
G01*
X222570000Y-69600000D02*
G75*
G03X222570000Y-69600000I-2500000J0D01*
G01*
X217510000Y-68055000D02*
X217510000Y-71145000D01*
G04 #@! TO.C,J2*
X108630000Y-140110000D02*
X108630000Y-146820000D01*
X123860000Y-140120000D02*
X123870000Y-146820000D01*
X108630000Y-128790000D02*
X108630000Y-137790000D01*
X123870000Y-128790000D02*
X108630000Y-128790000D01*
X123870000Y-128790000D02*
X123860000Y-137780000D01*
X108630000Y-146820000D02*
X123870000Y-146820000D01*
G04 #@! TO.C,J4*
X181630000Y-140110000D02*
X181630000Y-146820000D01*
X196860000Y-140120000D02*
X196870000Y-146820000D01*
X181630000Y-128790000D02*
X181630000Y-137790000D01*
X196870000Y-128790000D02*
X181630000Y-128790000D01*
X196870000Y-128790000D02*
X196860000Y-137780000D01*
X181630000Y-146820000D02*
X196870000Y-146820000D01*
G04 #@! TO.C,J5*
X125630000Y-140110000D02*
X125630000Y-146820000D01*
X140860000Y-140120000D02*
X140870000Y-146820000D01*
X125630000Y-128790000D02*
X125630000Y-137790000D01*
X140870000Y-128790000D02*
X125630000Y-128790000D01*
X140870000Y-128790000D02*
X140860000Y-137780000D01*
X125630000Y-146820000D02*
X140870000Y-146820000D01*
G04 #@! TO.C,J7*
X198630000Y-146820000D02*
X213870000Y-146820000D01*
X213870000Y-128790000D02*
X213860000Y-137780000D01*
X213870000Y-128790000D02*
X198630000Y-128790000D01*
X198630000Y-128790000D02*
X198630000Y-137790000D01*
X213860000Y-140120000D02*
X213870000Y-146820000D01*
X198630000Y-140110000D02*
X198630000Y-146820000D01*
G04 #@! TO.C,J8*
X215630000Y-140110000D02*
X215630000Y-146820000D01*
X230860000Y-140120000D02*
X230870000Y-146820000D01*
X215630000Y-128790000D02*
X215630000Y-137790000D01*
X230870000Y-128790000D02*
X215630000Y-128790000D01*
X230870000Y-128790000D02*
X230860000Y-137780000D01*
X215630000Y-146820000D02*
X230870000Y-146820000D01*
G04 #@! TO.C,J9*
X84720000Y-69730000D02*
X86050000Y-69730000D01*
X84720000Y-71060000D02*
X84720000Y-69730000D01*
X87320000Y-69730000D02*
X89920000Y-69730000D01*
X87320000Y-72330000D02*
X87320000Y-69730000D01*
X84720000Y-72330000D02*
X87320000Y-72330000D01*
X89920000Y-69730000D02*
X89920000Y-120650000D01*
X84720000Y-72330000D02*
X84720000Y-120650000D01*
X84720000Y-120650000D02*
X89920000Y-120650000D01*
G04 #@! TO.C,J10*
X225430000Y-66580000D02*
X225430000Y-72580000D01*
X225430000Y-72580000D02*
X230710000Y-72580000D01*
X230710000Y-72580000D02*
X230710000Y-66580000D01*
X230710000Y-66580000D02*
X225430000Y-66580000D01*
X226800000Y-72580000D02*
X226800000Y-71580000D01*
X226800000Y-71580000D02*
X229340000Y-71580000D01*
X229340000Y-71580000D02*
X229340000Y-72580000D01*
X226800000Y-71580000D02*
X227050000Y-71150000D01*
X227050000Y-71150000D02*
X229090000Y-71150000D01*
X229090000Y-71150000D02*
X229340000Y-71580000D01*
X227050000Y-72580000D02*
X227050000Y-71580000D01*
X229090000Y-72580000D02*
X229090000Y-71580000D01*
X226000000Y-66580000D02*
X226000000Y-67200000D01*
X226000000Y-67200000D02*
X227600000Y-67200000D01*
X227600000Y-67200000D02*
X227600000Y-66580000D01*
X228540000Y-66580000D02*
X228540000Y-67200000D01*
X228540000Y-67200000D02*
X230140000Y-67200000D01*
X230140000Y-67200000D02*
X230140000Y-66580000D01*
G04 #@! TO.C,Q1*
X190560000Y-116180000D02*
X190560000Y-115250000D01*
X190560000Y-113020000D02*
X190560000Y-113950000D01*
X190560000Y-113020000D02*
X188400000Y-113020000D01*
X190560000Y-116180000D02*
X189100000Y-116180000D01*
G04 #@! TO.C,Q2*
X209560000Y-116180000D02*
X209560000Y-115250000D01*
X209560000Y-113020000D02*
X209560000Y-113950000D01*
X209560000Y-113020000D02*
X207400000Y-113020000D01*
X209560000Y-116180000D02*
X208100000Y-116180000D01*
G04 #@! TO.C,Q3*
X190560000Y-101180000D02*
X189100000Y-101180000D01*
X190560000Y-98020000D02*
X188400000Y-98020000D01*
X190560000Y-98020000D02*
X190560000Y-98950000D01*
X190560000Y-101180000D02*
X190560000Y-100250000D01*
G04 #@! TO.C,Q4*
X208560000Y-101180000D02*
X207100000Y-101180000D01*
X208560000Y-98020000D02*
X206400000Y-98020000D01*
X208560000Y-98020000D02*
X208560000Y-98950000D01*
X208560000Y-101180000D02*
X208560000Y-100250000D01*
G04 #@! TO.C,R1*
X228540000Y-77600000D02*
X227470000Y-77600000D01*
X222680000Y-77600000D02*
X223750000Y-77600000D01*
X227470000Y-76740000D02*
X223750000Y-76740000D01*
X227470000Y-78460000D02*
X227470000Y-76740000D01*
X223750000Y-78460000D02*
X227470000Y-78460000D01*
X223750000Y-76740000D02*
X223750000Y-78460000D01*
G04 #@! TO.C,R2*
X150800000Y-109740000D02*
X150800000Y-108670000D01*
X150800000Y-103880000D02*
X150800000Y-104950000D01*
X151660000Y-108670000D02*
X151660000Y-104950000D01*
X149940000Y-108670000D02*
X151660000Y-108670000D01*
X149940000Y-104950000D02*
X149940000Y-108670000D01*
X151660000Y-104950000D02*
X149940000Y-104950000D01*
G04 #@! TO.C,R3*
X154660000Y-104950000D02*
X152940000Y-104950000D01*
X152940000Y-104950000D02*
X152940000Y-108670000D01*
X152940000Y-108670000D02*
X154660000Y-108670000D01*
X154660000Y-108670000D02*
X154660000Y-104950000D01*
X153800000Y-103880000D02*
X153800000Y-104950000D01*
X153800000Y-109740000D02*
X153800000Y-108670000D01*
G04 #@! TO.C,R4*
X156800000Y-109740000D02*
X156800000Y-108670000D01*
X156800000Y-103880000D02*
X156800000Y-104950000D01*
X157660000Y-108670000D02*
X157660000Y-104950000D01*
X155940000Y-108670000D02*
X157660000Y-108670000D01*
X155940000Y-104950000D02*
X155940000Y-108670000D01*
X157660000Y-104950000D02*
X155940000Y-104950000D01*
G04 #@! TO.C,R5*
X159800000Y-109740000D02*
X159800000Y-108670000D01*
X159800000Y-103880000D02*
X159800000Y-104950000D01*
X160660000Y-108670000D02*
X160660000Y-104950000D01*
X158940000Y-108670000D02*
X160660000Y-108670000D01*
X158940000Y-104950000D02*
X158940000Y-108670000D01*
X160660000Y-104950000D02*
X158940000Y-104950000D01*
G04 #@! TO.C,R6*
X163660000Y-104950000D02*
X161940000Y-104950000D01*
X161940000Y-104950000D02*
X161940000Y-108670000D01*
X161940000Y-108670000D02*
X163660000Y-108670000D01*
X163660000Y-108670000D02*
X163660000Y-104950000D01*
X162800000Y-103880000D02*
X162800000Y-104950000D01*
X162800000Y-109740000D02*
X162800000Y-108670000D01*
G04 #@! TO.C,R7*
X165800000Y-109740000D02*
X165800000Y-108670000D01*
X165800000Y-103880000D02*
X165800000Y-104950000D01*
X166660000Y-108670000D02*
X166660000Y-104950000D01*
X164940000Y-108670000D02*
X166660000Y-108670000D01*
X164940000Y-104950000D02*
X164940000Y-108670000D01*
X166660000Y-104950000D02*
X164940000Y-104950000D01*
G04 #@! TO.C,R8*
X168800000Y-109740000D02*
X168800000Y-108670000D01*
X168800000Y-103880000D02*
X168800000Y-104950000D01*
X169660000Y-108670000D02*
X169660000Y-104950000D01*
X167940000Y-108670000D02*
X169660000Y-108670000D01*
X167940000Y-104950000D02*
X167940000Y-108670000D01*
X169660000Y-104950000D02*
X167940000Y-104950000D01*
G04 #@! TO.C,R9*
X172660000Y-104950000D02*
X170940000Y-104950000D01*
X170940000Y-104950000D02*
X170940000Y-108670000D01*
X170940000Y-108670000D02*
X172660000Y-108670000D01*
X172660000Y-108670000D02*
X172660000Y-104950000D01*
X171800000Y-103880000D02*
X171800000Y-104950000D01*
X171800000Y-109740000D02*
X171800000Y-108670000D01*
G04 #@! TO.C,R10*
X105540000Y-118600000D02*
X104470000Y-118600000D01*
X99680000Y-118600000D02*
X100750000Y-118600000D01*
X104470000Y-117740000D02*
X100750000Y-117740000D01*
X104470000Y-119460000D02*
X104470000Y-117740000D01*
X100750000Y-119460000D02*
X104470000Y-119460000D01*
X100750000Y-117740000D02*
X100750000Y-119460000D01*
G04 #@! TO.C,R11*
X130540000Y-118600000D02*
X129470000Y-118600000D01*
X124680000Y-118600000D02*
X125750000Y-118600000D01*
X129470000Y-117740000D02*
X125750000Y-117740000D01*
X129470000Y-119460000D02*
X129470000Y-117740000D01*
X125750000Y-119460000D02*
X129470000Y-119460000D01*
X125750000Y-117740000D02*
X125750000Y-119460000D01*
G04 #@! TO.C,R12*
X100750000Y-109740000D02*
X100750000Y-111460000D01*
X100750000Y-111460000D02*
X104470000Y-111460000D01*
X104470000Y-111460000D02*
X104470000Y-109740000D01*
X104470000Y-109740000D02*
X100750000Y-109740000D01*
X99680000Y-110600000D02*
X100750000Y-110600000D01*
X105540000Y-110600000D02*
X104470000Y-110600000D01*
G04 #@! TO.C,R13*
X117540000Y-110600000D02*
X116470000Y-110600000D01*
X111680000Y-110600000D02*
X112750000Y-110600000D01*
X116470000Y-109740000D02*
X112750000Y-109740000D01*
X116470000Y-111460000D02*
X116470000Y-109740000D01*
X112750000Y-111460000D02*
X116470000Y-111460000D01*
X112750000Y-109740000D02*
X112750000Y-111460000D01*
G04 #@! TO.C,R14*
X125750000Y-109740000D02*
X125750000Y-111460000D01*
X125750000Y-111460000D02*
X129470000Y-111460000D01*
X129470000Y-111460000D02*
X129470000Y-109740000D01*
X129470000Y-109740000D02*
X125750000Y-109740000D01*
X124680000Y-110600000D02*
X125750000Y-110600000D01*
X130540000Y-110600000D02*
X129470000Y-110600000D01*
G04 #@! TO.C,R15*
X142540000Y-110600000D02*
X141470000Y-110600000D01*
X136680000Y-110600000D02*
X137750000Y-110600000D01*
X141470000Y-109740000D02*
X137750000Y-109740000D01*
X141470000Y-111460000D02*
X141470000Y-109740000D01*
X137750000Y-111460000D02*
X141470000Y-111460000D01*
X137750000Y-109740000D02*
X137750000Y-111460000D01*
G04 #@! TO.C,R16*
X100750000Y-96740000D02*
X100750000Y-98460000D01*
X100750000Y-98460000D02*
X104470000Y-98460000D01*
X104470000Y-98460000D02*
X104470000Y-96740000D01*
X104470000Y-96740000D02*
X100750000Y-96740000D01*
X99680000Y-97600000D02*
X100750000Y-97600000D01*
X105540000Y-97600000D02*
X104470000Y-97600000D01*
G04 #@! TO.C,R17*
X125750000Y-96740000D02*
X125750000Y-98460000D01*
X125750000Y-98460000D02*
X129470000Y-98460000D01*
X129470000Y-98460000D02*
X129470000Y-96740000D01*
X129470000Y-96740000D02*
X125750000Y-96740000D01*
X124680000Y-97600000D02*
X125750000Y-97600000D01*
X130540000Y-97600000D02*
X129470000Y-97600000D01*
G04 #@! TO.C,R18*
X105540000Y-89600000D02*
X104470000Y-89600000D01*
X99680000Y-89600000D02*
X100750000Y-89600000D01*
X104470000Y-88740000D02*
X100750000Y-88740000D01*
X104470000Y-90460000D02*
X104470000Y-88740000D01*
X100750000Y-90460000D02*
X104470000Y-90460000D01*
X100750000Y-88740000D02*
X100750000Y-90460000D01*
G04 #@! TO.C,R19*
X112750000Y-88740000D02*
X112750000Y-90460000D01*
X112750000Y-90460000D02*
X116470000Y-90460000D01*
X116470000Y-90460000D02*
X116470000Y-88740000D01*
X116470000Y-88740000D02*
X112750000Y-88740000D01*
X111680000Y-89600000D02*
X112750000Y-89600000D01*
X117540000Y-89600000D02*
X116470000Y-89600000D01*
G04 #@! TO.C,R20*
X130540000Y-89600000D02*
X129470000Y-89600000D01*
X124680000Y-89600000D02*
X125750000Y-89600000D01*
X129470000Y-88740000D02*
X125750000Y-88740000D01*
X129470000Y-90460000D02*
X129470000Y-88740000D01*
X125750000Y-90460000D02*
X129470000Y-90460000D01*
X125750000Y-88740000D02*
X125750000Y-90460000D01*
G04 #@! TO.C,R21*
X137750000Y-88740000D02*
X137750000Y-90460000D01*
X137750000Y-90460000D02*
X141470000Y-90460000D01*
X141470000Y-90460000D02*
X141470000Y-88740000D01*
X141470000Y-88740000D02*
X137750000Y-88740000D01*
X136680000Y-89600000D02*
X137750000Y-89600000D01*
X142540000Y-89600000D02*
X141470000Y-89600000D01*
G04 #@! TO.C,R22*
X183800000Y-117340000D02*
X183800000Y-116270000D01*
X183800000Y-111480000D02*
X183800000Y-112550000D01*
X184660000Y-116270000D02*
X184660000Y-112550000D01*
X182940000Y-116270000D02*
X184660000Y-116270000D01*
X182940000Y-112550000D02*
X182940000Y-116270000D01*
X184660000Y-112550000D02*
X182940000Y-112550000D01*
G04 #@! TO.C,R23*
X202800000Y-117340000D02*
X202800000Y-116270000D01*
X202800000Y-111480000D02*
X202800000Y-112550000D01*
X203660000Y-116270000D02*
X203660000Y-112550000D01*
X201940000Y-116270000D02*
X203660000Y-116270000D01*
X201940000Y-112550000D02*
X201940000Y-116270000D01*
X203660000Y-112550000D02*
X201940000Y-112550000D01*
G04 #@! TO.C,R24*
X195660000Y-112550000D02*
X193940000Y-112550000D01*
X193940000Y-112550000D02*
X193940000Y-116270000D01*
X193940000Y-116270000D02*
X195660000Y-116270000D01*
X195660000Y-116270000D02*
X195660000Y-112550000D01*
X194800000Y-111480000D02*
X194800000Y-112550000D01*
X194800000Y-117340000D02*
X194800000Y-116270000D01*
G04 #@! TO.C,R25*
X214660000Y-112550000D02*
X212940000Y-112550000D01*
X212940000Y-112550000D02*
X212940000Y-116270000D01*
X212940000Y-116270000D02*
X214660000Y-116270000D01*
X214660000Y-116270000D02*
X214660000Y-112550000D01*
X213800000Y-111480000D02*
X213800000Y-112550000D01*
X213800000Y-117340000D02*
X213800000Y-116270000D01*
G04 #@! TO.C,R26*
X183800000Y-102340000D02*
X183800000Y-101270000D01*
X183800000Y-96480000D02*
X183800000Y-97550000D01*
X184660000Y-101270000D02*
X184660000Y-97550000D01*
X182940000Y-101270000D02*
X184660000Y-101270000D01*
X182940000Y-97550000D02*
X182940000Y-101270000D01*
X184660000Y-97550000D02*
X182940000Y-97550000D01*
G04 #@! TO.C,R27*
X202800000Y-102340000D02*
X202800000Y-101270000D01*
X202800000Y-96480000D02*
X202800000Y-97550000D01*
X203660000Y-101270000D02*
X203660000Y-97550000D01*
X201940000Y-101270000D02*
X203660000Y-101270000D01*
X201940000Y-97550000D02*
X201940000Y-101270000D01*
X203660000Y-97550000D02*
X201940000Y-97550000D01*
G04 #@! TO.C,R28*
X195660000Y-97550000D02*
X193940000Y-97550000D01*
X193940000Y-97550000D02*
X193940000Y-101270000D01*
X193940000Y-101270000D02*
X195660000Y-101270000D01*
X195660000Y-101270000D02*
X195660000Y-97550000D01*
X194800000Y-96480000D02*
X194800000Y-97550000D01*
X194800000Y-102340000D02*
X194800000Y-101270000D01*
G04 #@! TO.C,R29*
X214660000Y-97550000D02*
X212940000Y-97550000D01*
X212940000Y-97550000D02*
X212940000Y-101270000D01*
X212940000Y-101270000D02*
X214660000Y-101270000D01*
X214660000Y-101270000D02*
X214660000Y-97550000D01*
X213800000Y-96480000D02*
X213800000Y-97550000D01*
X213800000Y-102340000D02*
X213800000Y-101270000D01*
G04 #@! TO.C,U2*
X202410000Y-66470000D02*
G75*
G02X200410000Y-66470000I-1000000J0D01*
G01*
X200410000Y-66470000D02*
X198760000Y-66470000D01*
X198760000Y-66470000D02*
X198760000Y-86910000D01*
X198760000Y-86910000D02*
X204060000Y-86910000D01*
X204060000Y-86910000D02*
X204060000Y-66470000D01*
X204060000Y-66470000D02*
X202410000Y-66470000D01*
X196270000Y-66410000D02*
X196270000Y-86970000D01*
X196270000Y-86970000D02*
X206550000Y-86970000D01*
X206550000Y-86970000D02*
X206550000Y-66410000D01*
X206550000Y-66410000D02*
X196270000Y-66410000D01*
G04 #@! TO.C,U3*
X166750000Y-75610000D02*
X156470000Y-75610000D01*
X166750000Y-96170000D02*
X166750000Y-75610000D01*
X156470000Y-96170000D02*
X166750000Y-96170000D01*
X156470000Y-75610000D02*
X156470000Y-96170000D01*
X164260000Y-75670000D02*
X162610000Y-75670000D01*
X164260000Y-96110000D02*
X164260000Y-75670000D01*
X158960000Y-96110000D02*
X164260000Y-96110000D01*
X158960000Y-75670000D02*
X158960000Y-96110000D01*
X160610000Y-75670000D02*
X158960000Y-75670000D01*
X162610000Y-75670000D02*
G75*
G02X160610000Y-75670000I-1000000J0D01*
G01*
G04 #@! TO.C,REF\002A\002A*
X89586000Y-66600000D02*
G75*
G03X89586000Y-66600000I-2286000J0D01*
G01*
X89586000Y-123600000D02*
G75*
G03X89586000Y-123600000I-2286000J0D01*
G01*
G04 #@! TO.C,J3*
D11*
X172166666Y-143232380D02*
X172166666Y-143946666D01*
X172119047Y-144089523D01*
X172023809Y-144184761D01*
X171880952Y-144232380D01*
X171785714Y-144232380D01*
X172547619Y-143232380D02*
X173166666Y-143232380D01*
X172833333Y-143613333D01*
X172976190Y-143613333D01*
X173071428Y-143660952D01*
X173119047Y-143708571D01*
X173166666Y-143803809D01*
X173166666Y-144041904D01*
X173119047Y-144137142D01*
X173071428Y-144184761D01*
X172976190Y-144232380D01*
X172690476Y-144232380D01*
X172595238Y-144184761D01*
X172547619Y-144137142D01*
G04 #@! TO.C,J6*
X150166666Y-143232380D02*
X150166666Y-143946666D01*
X150119047Y-144089523D01*
X150023809Y-144184761D01*
X149880952Y-144232380D01*
X149785714Y-144232380D01*
X151071428Y-143232380D02*
X150880952Y-143232380D01*
X150785714Y-143280000D01*
X150738095Y-143327619D01*
X150642857Y-143470476D01*
X150595238Y-143660952D01*
X150595238Y-144041904D01*
X150642857Y-144137142D01*
X150690476Y-144184761D01*
X150785714Y-144232380D01*
X150976190Y-144232380D01*
X151071428Y-144184761D01*
X151119047Y-144137142D01*
X151166666Y-144041904D01*
X151166666Y-143803809D01*
X151119047Y-143708571D01*
X151071428Y-143660952D01*
X150976190Y-143613333D01*
X150785714Y-143613333D01*
X150690476Y-143660952D01*
X150642857Y-143708571D01*
X150595238Y-143803809D01*
G04 #@! TO.C,J1*
X99166666Y-143232380D02*
X99166666Y-143946666D01*
X99119047Y-144089523D01*
X99023809Y-144184761D01*
X98880952Y-144232380D01*
X98785714Y-144232380D01*
X100166666Y-144232380D02*
X99595238Y-144232380D01*
X99880952Y-144232380D02*
X99880952Y-143232380D01*
X99785714Y-143375238D01*
X99690476Y-143470476D01*
X99595238Y-143518095D01*
G04 #@! TO.C,C3*
X114883333Y-114497142D02*
X114835714Y-114544761D01*
X114692857Y-114592380D01*
X114597619Y-114592380D01*
X114454761Y-114544761D01*
X114359523Y-114449523D01*
X114311904Y-114354285D01*
X114264285Y-114163809D01*
X114264285Y-114020952D01*
X114311904Y-113830476D01*
X114359523Y-113735238D01*
X114454761Y-113640000D01*
X114597619Y-113592380D01*
X114692857Y-113592380D01*
X114835714Y-113640000D01*
X114883333Y-113687619D01*
X115216666Y-113592380D02*
X115835714Y-113592380D01*
X115502380Y-113973333D01*
X115645238Y-113973333D01*
X115740476Y-114020952D01*
X115788095Y-114068571D01*
X115835714Y-114163809D01*
X115835714Y-114401904D01*
X115788095Y-114497142D01*
X115740476Y-114544761D01*
X115645238Y-114592380D01*
X115359523Y-114592380D01*
X115264285Y-114544761D01*
X115216666Y-114497142D01*
G04 #@! TO.C,U1*
X122848095Y-64322380D02*
X122848095Y-65131904D01*
X122895714Y-65227142D01*
X122943333Y-65274761D01*
X123038571Y-65322380D01*
X123229047Y-65322380D01*
X123324285Y-65274761D01*
X123371904Y-65227142D01*
X123419523Y-65131904D01*
X123419523Y-64322380D01*
X124419523Y-65322380D02*
X123848095Y-65322380D01*
X124133809Y-65322380D02*
X124133809Y-64322380D01*
X124038571Y-64465238D01*
X123943333Y-64560476D01*
X123848095Y-64608095D01*
G04 #@! TO.C,REF\002A\002A*
X159966666Y-64004380D02*
X159633333Y-63528190D01*
X159395238Y-64004380D02*
X159395238Y-63004380D01*
X159776190Y-63004380D01*
X159871428Y-63052000D01*
X159919047Y-63099619D01*
X159966666Y-63194857D01*
X159966666Y-63337714D01*
X159919047Y-63432952D01*
X159871428Y-63480571D01*
X159776190Y-63528190D01*
X159395238Y-63528190D01*
X160395238Y-63480571D02*
X160728571Y-63480571D01*
X160871428Y-64004380D02*
X160395238Y-64004380D01*
X160395238Y-63004380D01*
X160871428Y-63004380D01*
X161633333Y-63480571D02*
X161300000Y-63480571D01*
X161300000Y-64004380D02*
X161300000Y-63004380D01*
X161776190Y-63004380D01*
X162300000Y-63004380D02*
X162300000Y-63242476D01*
X162061904Y-63147238D02*
X162300000Y-63242476D01*
X162538095Y-63147238D01*
X162157142Y-63432952D02*
X162300000Y-63242476D01*
X162442857Y-63432952D01*
X163061904Y-63004380D02*
X163061904Y-63242476D01*
X162823809Y-63147238D02*
X163061904Y-63242476D01*
X163300000Y-63147238D01*
X162919047Y-63432952D02*
X163061904Y-63242476D01*
X163204761Y-63432952D01*
X159966666Y-142004380D02*
X159633333Y-141528190D01*
X159395238Y-142004380D02*
X159395238Y-141004380D01*
X159776190Y-141004380D01*
X159871428Y-141052000D01*
X159919047Y-141099619D01*
X159966666Y-141194857D01*
X159966666Y-141337714D01*
X159919047Y-141432952D01*
X159871428Y-141480571D01*
X159776190Y-141528190D01*
X159395238Y-141528190D01*
X160395238Y-141480571D02*
X160728571Y-141480571D01*
X160871428Y-142004380D02*
X160395238Y-142004380D01*
X160395238Y-141004380D01*
X160871428Y-141004380D01*
X161633333Y-141480571D02*
X161300000Y-141480571D01*
X161300000Y-142004380D02*
X161300000Y-141004380D01*
X161776190Y-141004380D01*
X162300000Y-141004380D02*
X162300000Y-141242476D01*
X162061904Y-141147238D02*
X162300000Y-141242476D01*
X162538095Y-141147238D01*
X162157142Y-141432952D02*
X162300000Y-141242476D01*
X162442857Y-141432952D01*
X163061904Y-141004380D02*
X163061904Y-141242476D01*
X162823809Y-141147238D02*
X163061904Y-141242476D01*
X163300000Y-141147238D01*
X162919047Y-141432952D02*
X163061904Y-141242476D01*
X163204761Y-141432952D01*
G04 #@! TO.C,C1*
X226883333Y-81497142D02*
X226835714Y-81544761D01*
X226692857Y-81592380D01*
X226597619Y-81592380D01*
X226454761Y-81544761D01*
X226359523Y-81449523D01*
X226311904Y-81354285D01*
X226264285Y-81163809D01*
X226264285Y-81020952D01*
X226311904Y-80830476D01*
X226359523Y-80735238D01*
X226454761Y-80640000D01*
X226597619Y-80592380D01*
X226692857Y-80592380D01*
X226835714Y-80640000D01*
X226883333Y-80687619D01*
X227835714Y-81592380D02*
X227264285Y-81592380D01*
X227550000Y-81592380D02*
X227550000Y-80592380D01*
X227454761Y-80735238D01*
X227359523Y-80830476D01*
X227264285Y-80878095D01*
G04 #@! TO.C,C2*
X226883333Y-90397142D02*
X226835714Y-90444761D01*
X226692857Y-90492380D01*
X226597619Y-90492380D01*
X226454761Y-90444761D01*
X226359523Y-90349523D01*
X226311904Y-90254285D01*
X226264285Y-90063809D01*
X226264285Y-89920952D01*
X226311904Y-89730476D01*
X226359523Y-89635238D01*
X226454761Y-89540000D01*
X226597619Y-89492380D01*
X226692857Y-89492380D01*
X226835714Y-89540000D01*
X226883333Y-89587619D01*
X227264285Y-89587619D02*
X227311904Y-89540000D01*
X227407142Y-89492380D01*
X227645238Y-89492380D01*
X227740476Y-89540000D01*
X227788095Y-89587619D01*
X227835714Y-89682857D01*
X227835714Y-89778095D01*
X227788095Y-89920952D01*
X227216666Y-90492380D01*
X227835714Y-90492380D01*
G04 #@! TO.C,C4*
X139883333Y-114497142D02*
X139835714Y-114544761D01*
X139692857Y-114592380D01*
X139597619Y-114592380D01*
X139454761Y-114544761D01*
X139359523Y-114449523D01*
X139311904Y-114354285D01*
X139264285Y-114163809D01*
X139264285Y-114020952D01*
X139311904Y-113830476D01*
X139359523Y-113735238D01*
X139454761Y-113640000D01*
X139597619Y-113592380D01*
X139692857Y-113592380D01*
X139835714Y-113640000D01*
X139883333Y-113687619D01*
X140740476Y-113925714D02*
X140740476Y-114592380D01*
X140502380Y-113544761D02*
X140264285Y-114259047D01*
X140883333Y-114259047D01*
G04 #@! TO.C,C5*
X114883333Y-93497142D02*
X114835714Y-93544761D01*
X114692857Y-93592380D01*
X114597619Y-93592380D01*
X114454761Y-93544761D01*
X114359523Y-93449523D01*
X114311904Y-93354285D01*
X114264285Y-93163809D01*
X114264285Y-93020952D01*
X114311904Y-92830476D01*
X114359523Y-92735238D01*
X114454761Y-92640000D01*
X114597619Y-92592380D01*
X114692857Y-92592380D01*
X114835714Y-92640000D01*
X114883333Y-92687619D01*
X115788095Y-92592380D02*
X115311904Y-92592380D01*
X115264285Y-93068571D01*
X115311904Y-93020952D01*
X115407142Y-92973333D01*
X115645238Y-92973333D01*
X115740476Y-93020952D01*
X115788095Y-93068571D01*
X115835714Y-93163809D01*
X115835714Y-93401904D01*
X115788095Y-93497142D01*
X115740476Y-93544761D01*
X115645238Y-93592380D01*
X115407142Y-93592380D01*
X115311904Y-93544761D01*
X115264285Y-93497142D01*
G04 #@! TO.C,C6*
X139883333Y-93497142D02*
X139835714Y-93544761D01*
X139692857Y-93592380D01*
X139597619Y-93592380D01*
X139454761Y-93544761D01*
X139359523Y-93449523D01*
X139311904Y-93354285D01*
X139264285Y-93163809D01*
X139264285Y-93020952D01*
X139311904Y-92830476D01*
X139359523Y-92735238D01*
X139454761Y-92640000D01*
X139597619Y-92592380D01*
X139692857Y-92592380D01*
X139835714Y-92640000D01*
X139883333Y-92687619D01*
X140740476Y-92592380D02*
X140550000Y-92592380D01*
X140454761Y-92640000D01*
X140407142Y-92687619D01*
X140311904Y-92830476D01*
X140264285Y-93020952D01*
X140264285Y-93401904D01*
X140311904Y-93497142D01*
X140359523Y-93544761D01*
X140454761Y-93592380D01*
X140645238Y-93592380D01*
X140740476Y-93544761D01*
X140788095Y-93497142D01*
X140835714Y-93401904D01*
X140835714Y-93163809D01*
X140788095Y-93068571D01*
X140740476Y-93020952D01*
X140645238Y-92973333D01*
X140454761Y-92973333D01*
X140359523Y-93020952D01*
X140311904Y-93068571D01*
X140264285Y-93163809D01*
G04 #@! TO.C,D1*
X219331904Y-66092380D02*
X219331904Y-65092380D01*
X219570000Y-65092380D01*
X219712857Y-65140000D01*
X219808095Y-65235238D01*
X219855714Y-65330476D01*
X219903333Y-65520952D01*
X219903333Y-65663809D01*
X219855714Y-65854285D01*
X219808095Y-65949523D01*
X219712857Y-66044761D01*
X219570000Y-66092380D01*
X219331904Y-66092380D01*
X220855714Y-66092380D02*
X220284285Y-66092380D01*
X220570000Y-66092380D02*
X220570000Y-65092380D01*
X220474761Y-65235238D01*
X220379523Y-65330476D01*
X220284285Y-65378095D01*
G04 #@! TO.C,J2*
X116166666Y-143232380D02*
X116166666Y-143946666D01*
X116119047Y-144089523D01*
X116023809Y-144184761D01*
X115880952Y-144232380D01*
X115785714Y-144232380D01*
X116595238Y-143327619D02*
X116642857Y-143280000D01*
X116738095Y-143232380D01*
X116976190Y-143232380D01*
X117071428Y-143280000D01*
X117119047Y-143327619D01*
X117166666Y-143422857D01*
X117166666Y-143518095D01*
X117119047Y-143660952D01*
X116547619Y-144232380D01*
X117166666Y-144232380D01*
G04 #@! TO.C,J4*
X189166666Y-143232380D02*
X189166666Y-143946666D01*
X189119047Y-144089523D01*
X189023809Y-144184761D01*
X188880952Y-144232380D01*
X188785714Y-144232380D01*
X190071428Y-143565714D02*
X190071428Y-144232380D01*
X189833333Y-143184761D02*
X189595238Y-143899047D01*
X190214285Y-143899047D01*
G04 #@! TO.C,J5*
X133166666Y-143232380D02*
X133166666Y-143946666D01*
X133119047Y-144089523D01*
X133023809Y-144184761D01*
X132880952Y-144232380D01*
X132785714Y-144232380D01*
X134119047Y-143232380D02*
X133642857Y-143232380D01*
X133595238Y-143708571D01*
X133642857Y-143660952D01*
X133738095Y-143613333D01*
X133976190Y-143613333D01*
X134071428Y-143660952D01*
X134119047Y-143708571D01*
X134166666Y-143803809D01*
X134166666Y-144041904D01*
X134119047Y-144137142D01*
X134071428Y-144184761D01*
X133976190Y-144232380D01*
X133738095Y-144232380D01*
X133642857Y-144184761D01*
X133595238Y-144137142D01*
G04 #@! TO.C,J7*
X206166666Y-143232380D02*
X206166666Y-143946666D01*
X206119047Y-144089523D01*
X206023809Y-144184761D01*
X205880952Y-144232380D01*
X205785714Y-144232380D01*
X206547619Y-143232380D02*
X207214285Y-143232380D01*
X206785714Y-144232380D01*
G04 #@! TO.C,J8*
X223166666Y-143232380D02*
X223166666Y-143946666D01*
X223119047Y-144089523D01*
X223023809Y-144184761D01*
X222880952Y-144232380D01*
X222785714Y-144232380D01*
X223785714Y-143660952D02*
X223690476Y-143613333D01*
X223642857Y-143565714D01*
X223595238Y-143470476D01*
X223595238Y-143422857D01*
X223642857Y-143327619D01*
X223690476Y-143280000D01*
X223785714Y-143232380D01*
X223976190Y-143232380D01*
X224071428Y-143280000D01*
X224119047Y-143327619D01*
X224166666Y-143422857D01*
X224166666Y-143470476D01*
X224119047Y-143565714D01*
X224071428Y-143613333D01*
X223976190Y-143660952D01*
X223785714Y-143660952D01*
X223690476Y-143708571D01*
X223642857Y-143756190D01*
X223595238Y-143851428D01*
X223595238Y-144041904D01*
X223642857Y-144137142D01*
X223690476Y-144184761D01*
X223785714Y-144232380D01*
X223976190Y-144232380D01*
X224071428Y-144184761D01*
X224119047Y-144137142D01*
X224166666Y-144041904D01*
X224166666Y-143851428D01*
X224119047Y-143756190D01*
X224071428Y-143708571D01*
X223976190Y-143660952D01*
G04 #@! TO.C,J9*
X86986666Y-68182380D02*
X86986666Y-68896666D01*
X86939047Y-69039523D01*
X86843809Y-69134761D01*
X86700952Y-69182380D01*
X86605714Y-69182380D01*
X87510476Y-69182380D02*
X87700952Y-69182380D01*
X87796190Y-69134761D01*
X87843809Y-69087142D01*
X87939047Y-68944285D01*
X87986666Y-68753809D01*
X87986666Y-68372857D01*
X87939047Y-68277619D01*
X87891428Y-68230000D01*
X87796190Y-68182380D01*
X87605714Y-68182380D01*
X87510476Y-68230000D01*
X87462857Y-68277619D01*
X87415238Y-68372857D01*
X87415238Y-68610952D01*
X87462857Y-68706190D01*
X87510476Y-68753809D01*
X87605714Y-68801428D01*
X87796190Y-68801428D01*
X87891428Y-68753809D01*
X87939047Y-68706190D01*
X87986666Y-68610952D01*
G04 #@! TO.C,J10*
X226990476Y-64552380D02*
X226990476Y-65266666D01*
X226942857Y-65409523D01*
X226847619Y-65504761D01*
X226704761Y-65552380D01*
X226609523Y-65552380D01*
X227990476Y-65552380D02*
X227419047Y-65552380D01*
X227704761Y-65552380D02*
X227704761Y-64552380D01*
X227609523Y-64695238D01*
X227514285Y-64790476D01*
X227419047Y-64838095D01*
X228609523Y-64552380D02*
X228704761Y-64552380D01*
X228800000Y-64600000D01*
X228847619Y-64647619D01*
X228895238Y-64742857D01*
X228942857Y-64933333D01*
X228942857Y-65171428D01*
X228895238Y-65361904D01*
X228847619Y-65457142D01*
X228800000Y-65504761D01*
X228704761Y-65552380D01*
X228609523Y-65552380D01*
X228514285Y-65504761D01*
X228466666Y-65457142D01*
X228419047Y-65361904D01*
X228371428Y-65171428D01*
X228371428Y-64933333D01*
X228419047Y-64742857D01*
X228466666Y-64647619D01*
X228514285Y-64600000D01*
X228609523Y-64552380D01*
G04 #@! TO.C,Q1*
X189704761Y-112647619D02*
X189609523Y-112600000D01*
X189514285Y-112504761D01*
X189371428Y-112361904D01*
X189276190Y-112314285D01*
X189180952Y-112314285D01*
X189228571Y-112552380D02*
X189133333Y-112504761D01*
X189038095Y-112409523D01*
X188990476Y-112219047D01*
X188990476Y-111885714D01*
X189038095Y-111695238D01*
X189133333Y-111600000D01*
X189228571Y-111552380D01*
X189419047Y-111552380D01*
X189514285Y-111600000D01*
X189609523Y-111695238D01*
X189657142Y-111885714D01*
X189657142Y-112219047D01*
X189609523Y-112409523D01*
X189514285Y-112504761D01*
X189419047Y-112552380D01*
X189228571Y-112552380D01*
X190609523Y-112552380D02*
X190038095Y-112552380D01*
X190323809Y-112552380D02*
X190323809Y-111552380D01*
X190228571Y-111695238D01*
X190133333Y-111790476D01*
X190038095Y-111838095D01*
G04 #@! TO.C,Q2*
X208704761Y-112647619D02*
X208609523Y-112600000D01*
X208514285Y-112504761D01*
X208371428Y-112361904D01*
X208276190Y-112314285D01*
X208180952Y-112314285D01*
X208228571Y-112552380D02*
X208133333Y-112504761D01*
X208038095Y-112409523D01*
X207990476Y-112219047D01*
X207990476Y-111885714D01*
X208038095Y-111695238D01*
X208133333Y-111600000D01*
X208228571Y-111552380D01*
X208419047Y-111552380D01*
X208514285Y-111600000D01*
X208609523Y-111695238D01*
X208657142Y-111885714D01*
X208657142Y-112219047D01*
X208609523Y-112409523D01*
X208514285Y-112504761D01*
X208419047Y-112552380D01*
X208228571Y-112552380D01*
X209038095Y-111647619D02*
X209085714Y-111600000D01*
X209180952Y-111552380D01*
X209419047Y-111552380D01*
X209514285Y-111600000D01*
X209561904Y-111647619D01*
X209609523Y-111742857D01*
X209609523Y-111838095D01*
X209561904Y-111980952D01*
X208990476Y-112552380D01*
X209609523Y-112552380D01*
G04 #@! TO.C,Q3*
X189704761Y-97647619D02*
X189609523Y-97600000D01*
X189514285Y-97504761D01*
X189371428Y-97361904D01*
X189276190Y-97314285D01*
X189180952Y-97314285D01*
X189228571Y-97552380D02*
X189133333Y-97504761D01*
X189038095Y-97409523D01*
X188990476Y-97219047D01*
X188990476Y-96885714D01*
X189038095Y-96695238D01*
X189133333Y-96600000D01*
X189228571Y-96552380D01*
X189419047Y-96552380D01*
X189514285Y-96600000D01*
X189609523Y-96695238D01*
X189657142Y-96885714D01*
X189657142Y-97219047D01*
X189609523Y-97409523D01*
X189514285Y-97504761D01*
X189419047Y-97552380D01*
X189228571Y-97552380D01*
X189990476Y-96552380D02*
X190609523Y-96552380D01*
X190276190Y-96933333D01*
X190419047Y-96933333D01*
X190514285Y-96980952D01*
X190561904Y-97028571D01*
X190609523Y-97123809D01*
X190609523Y-97361904D01*
X190561904Y-97457142D01*
X190514285Y-97504761D01*
X190419047Y-97552380D01*
X190133333Y-97552380D01*
X190038095Y-97504761D01*
X189990476Y-97457142D01*
G04 #@! TO.C,Q4*
X207704761Y-97647619D02*
X207609523Y-97600000D01*
X207514285Y-97504761D01*
X207371428Y-97361904D01*
X207276190Y-97314285D01*
X207180952Y-97314285D01*
X207228571Y-97552380D02*
X207133333Y-97504761D01*
X207038095Y-97409523D01*
X206990476Y-97219047D01*
X206990476Y-96885714D01*
X207038095Y-96695238D01*
X207133333Y-96600000D01*
X207228571Y-96552380D01*
X207419047Y-96552380D01*
X207514285Y-96600000D01*
X207609523Y-96695238D01*
X207657142Y-96885714D01*
X207657142Y-97219047D01*
X207609523Y-97409523D01*
X207514285Y-97504761D01*
X207419047Y-97552380D01*
X207228571Y-97552380D01*
X208514285Y-96885714D02*
X208514285Y-97552380D01*
X208276190Y-96504761D02*
X208038095Y-97219047D01*
X208657142Y-97219047D01*
G04 #@! TO.C,R1*
X225443333Y-76192380D02*
X225110000Y-75716190D01*
X224871904Y-76192380D02*
X224871904Y-75192380D01*
X225252857Y-75192380D01*
X225348095Y-75240000D01*
X225395714Y-75287619D01*
X225443333Y-75382857D01*
X225443333Y-75525714D01*
X225395714Y-75620952D01*
X225348095Y-75668571D01*
X225252857Y-75716190D01*
X224871904Y-75716190D01*
X226395714Y-76192380D02*
X225824285Y-76192380D01*
X226110000Y-76192380D02*
X226110000Y-75192380D01*
X226014761Y-75335238D01*
X225919523Y-75430476D01*
X225824285Y-75478095D01*
G04 #@! TO.C,R2*
X151252380Y-106976666D02*
X150776190Y-107310000D01*
X151252380Y-107548095D02*
X150252380Y-107548095D01*
X150252380Y-107167142D01*
X150300000Y-107071904D01*
X150347619Y-107024285D01*
X150442857Y-106976666D01*
X150585714Y-106976666D01*
X150680952Y-107024285D01*
X150728571Y-107071904D01*
X150776190Y-107167142D01*
X150776190Y-107548095D01*
X150347619Y-106595714D02*
X150300000Y-106548095D01*
X150252380Y-106452857D01*
X150252380Y-106214761D01*
X150300000Y-106119523D01*
X150347619Y-106071904D01*
X150442857Y-106024285D01*
X150538095Y-106024285D01*
X150680952Y-106071904D01*
X151252380Y-106643333D01*
X151252380Y-106024285D01*
G04 #@! TO.C,R3*
X154252380Y-106976666D02*
X153776190Y-107310000D01*
X154252380Y-107548095D02*
X153252380Y-107548095D01*
X153252380Y-107167142D01*
X153300000Y-107071904D01*
X153347619Y-107024285D01*
X153442857Y-106976666D01*
X153585714Y-106976666D01*
X153680952Y-107024285D01*
X153728571Y-107071904D01*
X153776190Y-107167142D01*
X153776190Y-107548095D01*
X153252380Y-106643333D02*
X153252380Y-106024285D01*
X153633333Y-106357619D01*
X153633333Y-106214761D01*
X153680952Y-106119523D01*
X153728571Y-106071904D01*
X153823809Y-106024285D01*
X154061904Y-106024285D01*
X154157142Y-106071904D01*
X154204761Y-106119523D01*
X154252380Y-106214761D01*
X154252380Y-106500476D01*
X154204761Y-106595714D01*
X154157142Y-106643333D01*
G04 #@! TO.C,R4*
X157252380Y-106976666D02*
X156776190Y-107310000D01*
X157252380Y-107548095D02*
X156252380Y-107548095D01*
X156252380Y-107167142D01*
X156300000Y-107071904D01*
X156347619Y-107024285D01*
X156442857Y-106976666D01*
X156585714Y-106976666D01*
X156680952Y-107024285D01*
X156728571Y-107071904D01*
X156776190Y-107167142D01*
X156776190Y-107548095D01*
X156585714Y-106119523D02*
X157252380Y-106119523D01*
X156204761Y-106357619D02*
X156919047Y-106595714D01*
X156919047Y-105976666D01*
G04 #@! TO.C,R5*
X160252380Y-106976666D02*
X159776190Y-107310000D01*
X160252380Y-107548095D02*
X159252380Y-107548095D01*
X159252380Y-107167142D01*
X159300000Y-107071904D01*
X159347619Y-107024285D01*
X159442857Y-106976666D01*
X159585714Y-106976666D01*
X159680952Y-107024285D01*
X159728571Y-107071904D01*
X159776190Y-107167142D01*
X159776190Y-107548095D01*
X159252380Y-106071904D02*
X159252380Y-106548095D01*
X159728571Y-106595714D01*
X159680952Y-106548095D01*
X159633333Y-106452857D01*
X159633333Y-106214761D01*
X159680952Y-106119523D01*
X159728571Y-106071904D01*
X159823809Y-106024285D01*
X160061904Y-106024285D01*
X160157142Y-106071904D01*
X160204761Y-106119523D01*
X160252380Y-106214761D01*
X160252380Y-106452857D01*
X160204761Y-106548095D01*
X160157142Y-106595714D01*
G04 #@! TO.C,R6*
X163252380Y-107166666D02*
X162776190Y-107500000D01*
X163252380Y-107738095D02*
X162252380Y-107738095D01*
X162252380Y-107357142D01*
X162300000Y-107261904D01*
X162347619Y-107214285D01*
X162442857Y-107166666D01*
X162585714Y-107166666D01*
X162680952Y-107214285D01*
X162728571Y-107261904D01*
X162776190Y-107357142D01*
X162776190Y-107738095D01*
X162252380Y-106309523D02*
X162252380Y-106500000D01*
X162300000Y-106595238D01*
X162347619Y-106642857D01*
X162490476Y-106738095D01*
X162680952Y-106785714D01*
X163061904Y-106785714D01*
X163157142Y-106738095D01*
X163204761Y-106690476D01*
X163252380Y-106595238D01*
X163252380Y-106404761D01*
X163204761Y-106309523D01*
X163157142Y-106261904D01*
X163061904Y-106214285D01*
X162823809Y-106214285D01*
X162728571Y-106261904D01*
X162680952Y-106309523D01*
X162633333Y-106404761D01*
X162633333Y-106595238D01*
X162680952Y-106690476D01*
X162728571Y-106738095D01*
X162823809Y-106785714D01*
G04 #@! TO.C,R7*
X166252380Y-106976666D02*
X165776190Y-107310000D01*
X166252380Y-107548095D02*
X165252380Y-107548095D01*
X165252380Y-107167142D01*
X165300000Y-107071904D01*
X165347619Y-107024285D01*
X165442857Y-106976666D01*
X165585714Y-106976666D01*
X165680952Y-107024285D01*
X165728571Y-107071904D01*
X165776190Y-107167142D01*
X165776190Y-107548095D01*
X165252380Y-106643333D02*
X165252380Y-105976666D01*
X166252380Y-106405238D01*
G04 #@! TO.C,R8*
X169252380Y-106976666D02*
X168776190Y-107310000D01*
X169252380Y-107548095D02*
X168252380Y-107548095D01*
X168252380Y-107167142D01*
X168300000Y-107071904D01*
X168347619Y-107024285D01*
X168442857Y-106976666D01*
X168585714Y-106976666D01*
X168680952Y-107024285D01*
X168728571Y-107071904D01*
X168776190Y-107167142D01*
X168776190Y-107548095D01*
X168680952Y-106405238D02*
X168633333Y-106500476D01*
X168585714Y-106548095D01*
X168490476Y-106595714D01*
X168442857Y-106595714D01*
X168347619Y-106548095D01*
X168300000Y-106500476D01*
X168252380Y-106405238D01*
X168252380Y-106214761D01*
X168300000Y-106119523D01*
X168347619Y-106071904D01*
X168442857Y-106024285D01*
X168490476Y-106024285D01*
X168585714Y-106071904D01*
X168633333Y-106119523D01*
X168680952Y-106214761D01*
X168680952Y-106405238D01*
X168728571Y-106500476D01*
X168776190Y-106548095D01*
X168871428Y-106595714D01*
X169061904Y-106595714D01*
X169157142Y-106548095D01*
X169204761Y-106500476D01*
X169252380Y-106405238D01*
X169252380Y-106214761D01*
X169204761Y-106119523D01*
X169157142Y-106071904D01*
X169061904Y-106024285D01*
X168871428Y-106024285D01*
X168776190Y-106071904D01*
X168728571Y-106119523D01*
X168680952Y-106214761D01*
G04 #@! TO.C,R9*
X172252380Y-106976666D02*
X171776190Y-107310000D01*
X172252380Y-107548095D02*
X171252380Y-107548095D01*
X171252380Y-107167142D01*
X171300000Y-107071904D01*
X171347619Y-107024285D01*
X171442857Y-106976666D01*
X171585714Y-106976666D01*
X171680952Y-107024285D01*
X171728571Y-107071904D01*
X171776190Y-107167142D01*
X171776190Y-107548095D01*
X172252380Y-106500476D02*
X172252380Y-106310000D01*
X172204761Y-106214761D01*
X172157142Y-106167142D01*
X172014285Y-106071904D01*
X171823809Y-106024285D01*
X171442857Y-106024285D01*
X171347619Y-106071904D01*
X171300000Y-106119523D01*
X171252380Y-106214761D01*
X171252380Y-106405238D01*
X171300000Y-106500476D01*
X171347619Y-106548095D01*
X171442857Y-106595714D01*
X171680952Y-106595714D01*
X171776190Y-106548095D01*
X171823809Y-106500476D01*
X171871428Y-106405238D01*
X171871428Y-106214761D01*
X171823809Y-106119523D01*
X171776190Y-106071904D01*
X171680952Y-106024285D01*
G04 #@! TO.C,R10*
X101967142Y-117192380D02*
X101633809Y-116716190D01*
X101395714Y-117192380D02*
X101395714Y-116192380D01*
X101776666Y-116192380D01*
X101871904Y-116240000D01*
X101919523Y-116287619D01*
X101967142Y-116382857D01*
X101967142Y-116525714D01*
X101919523Y-116620952D01*
X101871904Y-116668571D01*
X101776666Y-116716190D01*
X101395714Y-116716190D01*
X102919523Y-117192380D02*
X102348095Y-117192380D01*
X102633809Y-117192380D02*
X102633809Y-116192380D01*
X102538571Y-116335238D01*
X102443333Y-116430476D01*
X102348095Y-116478095D01*
X103538571Y-116192380D02*
X103633809Y-116192380D01*
X103729047Y-116240000D01*
X103776666Y-116287619D01*
X103824285Y-116382857D01*
X103871904Y-116573333D01*
X103871904Y-116811428D01*
X103824285Y-117001904D01*
X103776666Y-117097142D01*
X103729047Y-117144761D01*
X103633809Y-117192380D01*
X103538571Y-117192380D01*
X103443333Y-117144761D01*
X103395714Y-117097142D01*
X103348095Y-117001904D01*
X103300476Y-116811428D01*
X103300476Y-116573333D01*
X103348095Y-116382857D01*
X103395714Y-116287619D01*
X103443333Y-116240000D01*
X103538571Y-116192380D01*
G04 #@! TO.C,R11*
X126967142Y-117192380D02*
X126633809Y-116716190D01*
X126395714Y-117192380D02*
X126395714Y-116192380D01*
X126776666Y-116192380D01*
X126871904Y-116240000D01*
X126919523Y-116287619D01*
X126967142Y-116382857D01*
X126967142Y-116525714D01*
X126919523Y-116620952D01*
X126871904Y-116668571D01*
X126776666Y-116716190D01*
X126395714Y-116716190D01*
X127919523Y-117192380D02*
X127348095Y-117192380D01*
X127633809Y-117192380D02*
X127633809Y-116192380D01*
X127538571Y-116335238D01*
X127443333Y-116430476D01*
X127348095Y-116478095D01*
X128871904Y-117192380D02*
X128300476Y-117192380D01*
X128586190Y-117192380D02*
X128586190Y-116192380D01*
X128490952Y-116335238D01*
X128395714Y-116430476D01*
X128300476Y-116478095D01*
G04 #@! TO.C,R12*
X101967142Y-109192380D02*
X101633809Y-108716190D01*
X101395714Y-109192380D02*
X101395714Y-108192380D01*
X101776666Y-108192380D01*
X101871904Y-108240000D01*
X101919523Y-108287619D01*
X101967142Y-108382857D01*
X101967142Y-108525714D01*
X101919523Y-108620952D01*
X101871904Y-108668571D01*
X101776666Y-108716190D01*
X101395714Y-108716190D01*
X102919523Y-109192380D02*
X102348095Y-109192380D01*
X102633809Y-109192380D02*
X102633809Y-108192380D01*
X102538571Y-108335238D01*
X102443333Y-108430476D01*
X102348095Y-108478095D01*
X103300476Y-108287619D02*
X103348095Y-108240000D01*
X103443333Y-108192380D01*
X103681428Y-108192380D01*
X103776666Y-108240000D01*
X103824285Y-108287619D01*
X103871904Y-108382857D01*
X103871904Y-108478095D01*
X103824285Y-108620952D01*
X103252857Y-109192380D01*
X103871904Y-109192380D01*
G04 #@! TO.C,R13*
X113967142Y-109192380D02*
X113633809Y-108716190D01*
X113395714Y-109192380D02*
X113395714Y-108192380D01*
X113776666Y-108192380D01*
X113871904Y-108240000D01*
X113919523Y-108287619D01*
X113967142Y-108382857D01*
X113967142Y-108525714D01*
X113919523Y-108620952D01*
X113871904Y-108668571D01*
X113776666Y-108716190D01*
X113395714Y-108716190D01*
X114919523Y-109192380D02*
X114348095Y-109192380D01*
X114633809Y-109192380D02*
X114633809Y-108192380D01*
X114538571Y-108335238D01*
X114443333Y-108430476D01*
X114348095Y-108478095D01*
X115252857Y-108192380D02*
X115871904Y-108192380D01*
X115538571Y-108573333D01*
X115681428Y-108573333D01*
X115776666Y-108620952D01*
X115824285Y-108668571D01*
X115871904Y-108763809D01*
X115871904Y-109001904D01*
X115824285Y-109097142D01*
X115776666Y-109144761D01*
X115681428Y-109192380D01*
X115395714Y-109192380D01*
X115300476Y-109144761D01*
X115252857Y-109097142D01*
G04 #@! TO.C,R14*
X126967142Y-109192380D02*
X126633809Y-108716190D01*
X126395714Y-109192380D02*
X126395714Y-108192380D01*
X126776666Y-108192380D01*
X126871904Y-108240000D01*
X126919523Y-108287619D01*
X126967142Y-108382857D01*
X126967142Y-108525714D01*
X126919523Y-108620952D01*
X126871904Y-108668571D01*
X126776666Y-108716190D01*
X126395714Y-108716190D01*
X127919523Y-109192380D02*
X127348095Y-109192380D01*
X127633809Y-109192380D02*
X127633809Y-108192380D01*
X127538571Y-108335238D01*
X127443333Y-108430476D01*
X127348095Y-108478095D01*
X128776666Y-108525714D02*
X128776666Y-109192380D01*
X128538571Y-108144761D02*
X128300476Y-108859047D01*
X128919523Y-108859047D01*
G04 #@! TO.C,R15*
X138967142Y-109192380D02*
X138633809Y-108716190D01*
X138395714Y-109192380D02*
X138395714Y-108192380D01*
X138776666Y-108192380D01*
X138871904Y-108240000D01*
X138919523Y-108287619D01*
X138967142Y-108382857D01*
X138967142Y-108525714D01*
X138919523Y-108620952D01*
X138871904Y-108668571D01*
X138776666Y-108716190D01*
X138395714Y-108716190D01*
X139919523Y-109192380D02*
X139348095Y-109192380D01*
X139633809Y-109192380D02*
X139633809Y-108192380D01*
X139538571Y-108335238D01*
X139443333Y-108430476D01*
X139348095Y-108478095D01*
X140824285Y-108192380D02*
X140348095Y-108192380D01*
X140300476Y-108668571D01*
X140348095Y-108620952D01*
X140443333Y-108573333D01*
X140681428Y-108573333D01*
X140776666Y-108620952D01*
X140824285Y-108668571D01*
X140871904Y-108763809D01*
X140871904Y-109001904D01*
X140824285Y-109097142D01*
X140776666Y-109144761D01*
X140681428Y-109192380D01*
X140443333Y-109192380D01*
X140348095Y-109144761D01*
X140300476Y-109097142D01*
G04 #@! TO.C,R16*
X101967142Y-96192380D02*
X101633809Y-95716190D01*
X101395714Y-96192380D02*
X101395714Y-95192380D01*
X101776666Y-95192380D01*
X101871904Y-95240000D01*
X101919523Y-95287619D01*
X101967142Y-95382857D01*
X101967142Y-95525714D01*
X101919523Y-95620952D01*
X101871904Y-95668571D01*
X101776666Y-95716190D01*
X101395714Y-95716190D01*
X102919523Y-96192380D02*
X102348095Y-96192380D01*
X102633809Y-96192380D02*
X102633809Y-95192380D01*
X102538571Y-95335238D01*
X102443333Y-95430476D01*
X102348095Y-95478095D01*
X103776666Y-95192380D02*
X103586190Y-95192380D01*
X103490952Y-95240000D01*
X103443333Y-95287619D01*
X103348095Y-95430476D01*
X103300476Y-95620952D01*
X103300476Y-96001904D01*
X103348095Y-96097142D01*
X103395714Y-96144761D01*
X103490952Y-96192380D01*
X103681428Y-96192380D01*
X103776666Y-96144761D01*
X103824285Y-96097142D01*
X103871904Y-96001904D01*
X103871904Y-95763809D01*
X103824285Y-95668571D01*
X103776666Y-95620952D01*
X103681428Y-95573333D01*
X103490952Y-95573333D01*
X103395714Y-95620952D01*
X103348095Y-95668571D01*
X103300476Y-95763809D01*
G04 #@! TO.C,R17*
X126967142Y-96192380D02*
X126633809Y-95716190D01*
X126395714Y-96192380D02*
X126395714Y-95192380D01*
X126776666Y-95192380D01*
X126871904Y-95240000D01*
X126919523Y-95287619D01*
X126967142Y-95382857D01*
X126967142Y-95525714D01*
X126919523Y-95620952D01*
X126871904Y-95668571D01*
X126776666Y-95716190D01*
X126395714Y-95716190D01*
X127919523Y-96192380D02*
X127348095Y-96192380D01*
X127633809Y-96192380D02*
X127633809Y-95192380D01*
X127538571Y-95335238D01*
X127443333Y-95430476D01*
X127348095Y-95478095D01*
X128252857Y-95192380D02*
X128919523Y-95192380D01*
X128490952Y-96192380D01*
G04 #@! TO.C,R18*
X101967142Y-88192380D02*
X101633809Y-87716190D01*
X101395714Y-88192380D02*
X101395714Y-87192380D01*
X101776666Y-87192380D01*
X101871904Y-87240000D01*
X101919523Y-87287619D01*
X101967142Y-87382857D01*
X101967142Y-87525714D01*
X101919523Y-87620952D01*
X101871904Y-87668571D01*
X101776666Y-87716190D01*
X101395714Y-87716190D01*
X102919523Y-88192380D02*
X102348095Y-88192380D01*
X102633809Y-88192380D02*
X102633809Y-87192380D01*
X102538571Y-87335238D01*
X102443333Y-87430476D01*
X102348095Y-87478095D01*
X103490952Y-87620952D02*
X103395714Y-87573333D01*
X103348095Y-87525714D01*
X103300476Y-87430476D01*
X103300476Y-87382857D01*
X103348095Y-87287619D01*
X103395714Y-87240000D01*
X103490952Y-87192380D01*
X103681428Y-87192380D01*
X103776666Y-87240000D01*
X103824285Y-87287619D01*
X103871904Y-87382857D01*
X103871904Y-87430476D01*
X103824285Y-87525714D01*
X103776666Y-87573333D01*
X103681428Y-87620952D01*
X103490952Y-87620952D01*
X103395714Y-87668571D01*
X103348095Y-87716190D01*
X103300476Y-87811428D01*
X103300476Y-88001904D01*
X103348095Y-88097142D01*
X103395714Y-88144761D01*
X103490952Y-88192380D01*
X103681428Y-88192380D01*
X103776666Y-88144761D01*
X103824285Y-88097142D01*
X103871904Y-88001904D01*
X103871904Y-87811428D01*
X103824285Y-87716190D01*
X103776666Y-87668571D01*
X103681428Y-87620952D01*
G04 #@! TO.C,R19*
X113967142Y-88192380D02*
X113633809Y-87716190D01*
X113395714Y-88192380D02*
X113395714Y-87192380D01*
X113776666Y-87192380D01*
X113871904Y-87240000D01*
X113919523Y-87287619D01*
X113967142Y-87382857D01*
X113967142Y-87525714D01*
X113919523Y-87620952D01*
X113871904Y-87668571D01*
X113776666Y-87716190D01*
X113395714Y-87716190D01*
X114919523Y-88192380D02*
X114348095Y-88192380D01*
X114633809Y-88192380D02*
X114633809Y-87192380D01*
X114538571Y-87335238D01*
X114443333Y-87430476D01*
X114348095Y-87478095D01*
X115395714Y-88192380D02*
X115586190Y-88192380D01*
X115681428Y-88144761D01*
X115729047Y-88097142D01*
X115824285Y-87954285D01*
X115871904Y-87763809D01*
X115871904Y-87382857D01*
X115824285Y-87287619D01*
X115776666Y-87240000D01*
X115681428Y-87192380D01*
X115490952Y-87192380D01*
X115395714Y-87240000D01*
X115348095Y-87287619D01*
X115300476Y-87382857D01*
X115300476Y-87620952D01*
X115348095Y-87716190D01*
X115395714Y-87763809D01*
X115490952Y-87811428D01*
X115681428Y-87811428D01*
X115776666Y-87763809D01*
X115824285Y-87716190D01*
X115871904Y-87620952D01*
G04 #@! TO.C,R20*
X126967142Y-88192380D02*
X126633809Y-87716190D01*
X126395714Y-88192380D02*
X126395714Y-87192380D01*
X126776666Y-87192380D01*
X126871904Y-87240000D01*
X126919523Y-87287619D01*
X126967142Y-87382857D01*
X126967142Y-87525714D01*
X126919523Y-87620952D01*
X126871904Y-87668571D01*
X126776666Y-87716190D01*
X126395714Y-87716190D01*
X127348095Y-87287619D02*
X127395714Y-87240000D01*
X127490952Y-87192380D01*
X127729047Y-87192380D01*
X127824285Y-87240000D01*
X127871904Y-87287619D01*
X127919523Y-87382857D01*
X127919523Y-87478095D01*
X127871904Y-87620952D01*
X127300476Y-88192380D01*
X127919523Y-88192380D01*
X128538571Y-87192380D02*
X128633809Y-87192380D01*
X128729047Y-87240000D01*
X128776666Y-87287619D01*
X128824285Y-87382857D01*
X128871904Y-87573333D01*
X128871904Y-87811428D01*
X128824285Y-88001904D01*
X128776666Y-88097142D01*
X128729047Y-88144761D01*
X128633809Y-88192380D01*
X128538571Y-88192380D01*
X128443333Y-88144761D01*
X128395714Y-88097142D01*
X128348095Y-88001904D01*
X128300476Y-87811428D01*
X128300476Y-87573333D01*
X128348095Y-87382857D01*
X128395714Y-87287619D01*
X128443333Y-87240000D01*
X128538571Y-87192380D01*
G04 #@! TO.C,R21*
X138967142Y-88192380D02*
X138633809Y-87716190D01*
X138395714Y-88192380D02*
X138395714Y-87192380D01*
X138776666Y-87192380D01*
X138871904Y-87240000D01*
X138919523Y-87287619D01*
X138967142Y-87382857D01*
X138967142Y-87525714D01*
X138919523Y-87620952D01*
X138871904Y-87668571D01*
X138776666Y-87716190D01*
X138395714Y-87716190D01*
X139348095Y-87287619D02*
X139395714Y-87240000D01*
X139490952Y-87192380D01*
X139729047Y-87192380D01*
X139824285Y-87240000D01*
X139871904Y-87287619D01*
X139919523Y-87382857D01*
X139919523Y-87478095D01*
X139871904Y-87620952D01*
X139300476Y-88192380D01*
X139919523Y-88192380D01*
X140871904Y-88192380D02*
X140300476Y-88192380D01*
X140586190Y-88192380D02*
X140586190Y-87192380D01*
X140490952Y-87335238D01*
X140395714Y-87430476D01*
X140300476Y-87478095D01*
G04 #@! TO.C,R22*
X186112380Y-115052857D02*
X185636190Y-115386190D01*
X186112380Y-115624285D02*
X185112380Y-115624285D01*
X185112380Y-115243333D01*
X185160000Y-115148095D01*
X185207619Y-115100476D01*
X185302857Y-115052857D01*
X185445714Y-115052857D01*
X185540952Y-115100476D01*
X185588571Y-115148095D01*
X185636190Y-115243333D01*
X185636190Y-115624285D01*
X185207619Y-114671904D02*
X185160000Y-114624285D01*
X185112380Y-114529047D01*
X185112380Y-114290952D01*
X185160000Y-114195714D01*
X185207619Y-114148095D01*
X185302857Y-114100476D01*
X185398095Y-114100476D01*
X185540952Y-114148095D01*
X186112380Y-114719523D01*
X186112380Y-114100476D01*
X185207619Y-113719523D02*
X185160000Y-113671904D01*
X185112380Y-113576666D01*
X185112380Y-113338571D01*
X185160000Y-113243333D01*
X185207619Y-113195714D01*
X185302857Y-113148095D01*
X185398095Y-113148095D01*
X185540952Y-113195714D01*
X186112380Y-113767142D01*
X186112380Y-113148095D01*
G04 #@! TO.C,R23*
X205112380Y-115052857D02*
X204636190Y-115386190D01*
X205112380Y-115624285D02*
X204112380Y-115624285D01*
X204112380Y-115243333D01*
X204160000Y-115148095D01*
X204207619Y-115100476D01*
X204302857Y-115052857D01*
X204445714Y-115052857D01*
X204540952Y-115100476D01*
X204588571Y-115148095D01*
X204636190Y-115243333D01*
X204636190Y-115624285D01*
X204207619Y-114671904D02*
X204160000Y-114624285D01*
X204112380Y-114529047D01*
X204112380Y-114290952D01*
X204160000Y-114195714D01*
X204207619Y-114148095D01*
X204302857Y-114100476D01*
X204398095Y-114100476D01*
X204540952Y-114148095D01*
X205112380Y-114719523D01*
X205112380Y-114100476D01*
X204112380Y-113767142D02*
X204112380Y-113148095D01*
X204493333Y-113481428D01*
X204493333Y-113338571D01*
X204540952Y-113243333D01*
X204588571Y-113195714D01*
X204683809Y-113148095D01*
X204921904Y-113148095D01*
X205017142Y-113195714D01*
X205064761Y-113243333D01*
X205112380Y-113338571D01*
X205112380Y-113624285D01*
X205064761Y-113719523D01*
X205017142Y-113767142D01*
G04 #@! TO.C,R24*
X197112380Y-115052857D02*
X196636190Y-115386190D01*
X197112380Y-115624285D02*
X196112380Y-115624285D01*
X196112380Y-115243333D01*
X196160000Y-115148095D01*
X196207619Y-115100476D01*
X196302857Y-115052857D01*
X196445714Y-115052857D01*
X196540952Y-115100476D01*
X196588571Y-115148095D01*
X196636190Y-115243333D01*
X196636190Y-115624285D01*
X196207619Y-114671904D02*
X196160000Y-114624285D01*
X196112380Y-114529047D01*
X196112380Y-114290952D01*
X196160000Y-114195714D01*
X196207619Y-114148095D01*
X196302857Y-114100476D01*
X196398095Y-114100476D01*
X196540952Y-114148095D01*
X197112380Y-114719523D01*
X197112380Y-114100476D01*
X196445714Y-113243333D02*
X197112380Y-113243333D01*
X196064761Y-113481428D02*
X196779047Y-113719523D01*
X196779047Y-113100476D01*
G04 #@! TO.C,R25*
X216112380Y-115052857D02*
X215636190Y-115386190D01*
X216112380Y-115624285D02*
X215112380Y-115624285D01*
X215112380Y-115243333D01*
X215160000Y-115148095D01*
X215207619Y-115100476D01*
X215302857Y-115052857D01*
X215445714Y-115052857D01*
X215540952Y-115100476D01*
X215588571Y-115148095D01*
X215636190Y-115243333D01*
X215636190Y-115624285D01*
X215207619Y-114671904D02*
X215160000Y-114624285D01*
X215112380Y-114529047D01*
X215112380Y-114290952D01*
X215160000Y-114195714D01*
X215207619Y-114148095D01*
X215302857Y-114100476D01*
X215398095Y-114100476D01*
X215540952Y-114148095D01*
X216112380Y-114719523D01*
X216112380Y-114100476D01*
X215112380Y-113195714D02*
X215112380Y-113671904D01*
X215588571Y-113719523D01*
X215540952Y-113671904D01*
X215493333Y-113576666D01*
X215493333Y-113338571D01*
X215540952Y-113243333D01*
X215588571Y-113195714D01*
X215683809Y-113148095D01*
X215921904Y-113148095D01*
X216017142Y-113195714D01*
X216064761Y-113243333D01*
X216112380Y-113338571D01*
X216112380Y-113576666D01*
X216064761Y-113671904D01*
X216017142Y-113719523D01*
G04 #@! TO.C,R26*
X186112380Y-100052857D02*
X185636190Y-100386190D01*
X186112380Y-100624285D02*
X185112380Y-100624285D01*
X185112380Y-100243333D01*
X185160000Y-100148095D01*
X185207619Y-100100476D01*
X185302857Y-100052857D01*
X185445714Y-100052857D01*
X185540952Y-100100476D01*
X185588571Y-100148095D01*
X185636190Y-100243333D01*
X185636190Y-100624285D01*
X185207619Y-99671904D02*
X185160000Y-99624285D01*
X185112380Y-99529047D01*
X185112380Y-99290952D01*
X185160000Y-99195714D01*
X185207619Y-99148095D01*
X185302857Y-99100476D01*
X185398095Y-99100476D01*
X185540952Y-99148095D01*
X186112380Y-99719523D01*
X186112380Y-99100476D01*
X185112380Y-98243333D02*
X185112380Y-98433809D01*
X185160000Y-98529047D01*
X185207619Y-98576666D01*
X185350476Y-98671904D01*
X185540952Y-98719523D01*
X185921904Y-98719523D01*
X186017142Y-98671904D01*
X186064761Y-98624285D01*
X186112380Y-98529047D01*
X186112380Y-98338571D01*
X186064761Y-98243333D01*
X186017142Y-98195714D01*
X185921904Y-98148095D01*
X185683809Y-98148095D01*
X185588571Y-98195714D01*
X185540952Y-98243333D01*
X185493333Y-98338571D01*
X185493333Y-98529047D01*
X185540952Y-98624285D01*
X185588571Y-98671904D01*
X185683809Y-98719523D01*
G04 #@! TO.C,R27*
X205112380Y-100052857D02*
X204636190Y-100386190D01*
X205112380Y-100624285D02*
X204112380Y-100624285D01*
X204112380Y-100243333D01*
X204160000Y-100148095D01*
X204207619Y-100100476D01*
X204302857Y-100052857D01*
X204445714Y-100052857D01*
X204540952Y-100100476D01*
X204588571Y-100148095D01*
X204636190Y-100243333D01*
X204636190Y-100624285D01*
X204207619Y-99671904D02*
X204160000Y-99624285D01*
X204112380Y-99529047D01*
X204112380Y-99290952D01*
X204160000Y-99195714D01*
X204207619Y-99148095D01*
X204302857Y-99100476D01*
X204398095Y-99100476D01*
X204540952Y-99148095D01*
X205112380Y-99719523D01*
X205112380Y-99100476D01*
X204112380Y-98767142D02*
X204112380Y-98100476D01*
X205112380Y-98529047D01*
G04 #@! TO.C,R28*
X197112380Y-100052857D02*
X196636190Y-100386190D01*
X197112380Y-100624285D02*
X196112380Y-100624285D01*
X196112380Y-100243333D01*
X196160000Y-100148095D01*
X196207619Y-100100476D01*
X196302857Y-100052857D01*
X196445714Y-100052857D01*
X196540952Y-100100476D01*
X196588571Y-100148095D01*
X196636190Y-100243333D01*
X196636190Y-100624285D01*
X196207619Y-99671904D02*
X196160000Y-99624285D01*
X196112380Y-99529047D01*
X196112380Y-99290952D01*
X196160000Y-99195714D01*
X196207619Y-99148095D01*
X196302857Y-99100476D01*
X196398095Y-99100476D01*
X196540952Y-99148095D01*
X197112380Y-99719523D01*
X197112380Y-99100476D01*
X196540952Y-98529047D02*
X196493333Y-98624285D01*
X196445714Y-98671904D01*
X196350476Y-98719523D01*
X196302857Y-98719523D01*
X196207619Y-98671904D01*
X196160000Y-98624285D01*
X196112380Y-98529047D01*
X196112380Y-98338571D01*
X196160000Y-98243333D01*
X196207619Y-98195714D01*
X196302857Y-98148095D01*
X196350476Y-98148095D01*
X196445714Y-98195714D01*
X196493333Y-98243333D01*
X196540952Y-98338571D01*
X196540952Y-98529047D01*
X196588571Y-98624285D01*
X196636190Y-98671904D01*
X196731428Y-98719523D01*
X196921904Y-98719523D01*
X197017142Y-98671904D01*
X197064761Y-98624285D01*
X197112380Y-98529047D01*
X197112380Y-98338571D01*
X197064761Y-98243333D01*
X197017142Y-98195714D01*
X196921904Y-98148095D01*
X196731428Y-98148095D01*
X196636190Y-98195714D01*
X196588571Y-98243333D01*
X196540952Y-98338571D01*
G04 #@! TO.C,R29*
X216112380Y-100052857D02*
X215636190Y-100386190D01*
X216112380Y-100624285D02*
X215112380Y-100624285D01*
X215112380Y-100243333D01*
X215160000Y-100148095D01*
X215207619Y-100100476D01*
X215302857Y-100052857D01*
X215445714Y-100052857D01*
X215540952Y-100100476D01*
X215588571Y-100148095D01*
X215636190Y-100243333D01*
X215636190Y-100624285D01*
X215207619Y-99671904D02*
X215160000Y-99624285D01*
X215112380Y-99529047D01*
X215112380Y-99290952D01*
X215160000Y-99195714D01*
X215207619Y-99148095D01*
X215302857Y-99100476D01*
X215398095Y-99100476D01*
X215540952Y-99148095D01*
X216112380Y-99719523D01*
X216112380Y-99100476D01*
X216112380Y-98624285D02*
X216112380Y-98433809D01*
X216064761Y-98338571D01*
X216017142Y-98290952D01*
X215874285Y-98195714D01*
X215683809Y-98148095D01*
X215302857Y-98148095D01*
X215207619Y-98195714D01*
X215160000Y-98243333D01*
X215112380Y-98338571D01*
X215112380Y-98529047D01*
X215160000Y-98624285D01*
X215207619Y-98671904D01*
X215302857Y-98719523D01*
X215540952Y-98719523D01*
X215636190Y-98671904D01*
X215683809Y-98624285D01*
X215731428Y-98529047D01*
X215731428Y-98338571D01*
X215683809Y-98243333D01*
X215636190Y-98195714D01*
X215540952Y-98148095D01*
G04 #@! TO.C,U2*
X200648095Y-64922380D02*
X200648095Y-65731904D01*
X200695714Y-65827142D01*
X200743333Y-65874761D01*
X200838571Y-65922380D01*
X201029047Y-65922380D01*
X201124285Y-65874761D01*
X201171904Y-65827142D01*
X201219523Y-65731904D01*
X201219523Y-64922380D01*
X201648095Y-65017619D02*
X201695714Y-64970000D01*
X201790952Y-64922380D01*
X202029047Y-64922380D01*
X202124285Y-64970000D01*
X202171904Y-65017619D01*
X202219523Y-65112857D01*
X202219523Y-65208095D01*
X202171904Y-65350952D01*
X201600476Y-65922380D01*
X202219523Y-65922380D01*
G04 #@! TO.C,U3*
X160848095Y-74122380D02*
X160848095Y-74931904D01*
X160895714Y-75027142D01*
X160943333Y-75074761D01*
X161038571Y-75122380D01*
X161229047Y-75122380D01*
X161324285Y-75074761D01*
X161371904Y-75027142D01*
X161419523Y-74931904D01*
X161419523Y-74122380D01*
X161800476Y-74122380D02*
X162419523Y-74122380D01*
X162086190Y-74503333D01*
X162229047Y-74503333D01*
X162324285Y-74550952D01*
X162371904Y-74598571D01*
X162419523Y-74693809D01*
X162419523Y-74931904D01*
X162371904Y-75027142D01*
X162324285Y-75074761D01*
X162229047Y-75122380D01*
X161943333Y-75122380D01*
X161848095Y-75074761D01*
X161800476Y-75027142D01*
G04 #@! TO.C,REF\002A\002A*
X85966666Y-64004380D02*
X85633333Y-63528190D01*
X85395238Y-64004380D02*
X85395238Y-63004380D01*
X85776190Y-63004380D01*
X85871428Y-63052000D01*
X85919047Y-63099619D01*
X85966666Y-63194857D01*
X85966666Y-63337714D01*
X85919047Y-63432952D01*
X85871428Y-63480571D01*
X85776190Y-63528190D01*
X85395238Y-63528190D01*
X86395238Y-63480571D02*
X86728571Y-63480571D01*
X86871428Y-64004380D02*
X86395238Y-64004380D01*
X86395238Y-63004380D01*
X86871428Y-63004380D01*
X87633333Y-63480571D02*
X87300000Y-63480571D01*
X87300000Y-64004380D02*
X87300000Y-63004380D01*
X87776190Y-63004380D01*
X88300000Y-63004380D02*
X88300000Y-63242476D01*
X88061904Y-63147238D02*
X88300000Y-63242476D01*
X88538095Y-63147238D01*
X88157142Y-63432952D02*
X88300000Y-63242476D01*
X88442857Y-63432952D01*
X89061904Y-63004380D02*
X89061904Y-63242476D01*
X88823809Y-63147238D02*
X89061904Y-63242476D01*
X89300000Y-63147238D01*
X88919047Y-63432952D02*
X89061904Y-63242476D01*
X89204761Y-63432952D01*
X81966666Y-120552380D02*
X81633333Y-120076190D01*
X81395238Y-120552380D02*
X81395238Y-119552380D01*
X81776190Y-119552380D01*
X81871428Y-119600000D01*
X81919047Y-119647619D01*
X81966666Y-119742857D01*
X81966666Y-119885714D01*
X81919047Y-119980952D01*
X81871428Y-120028571D01*
X81776190Y-120076190D01*
X81395238Y-120076190D01*
X82395238Y-120028571D02*
X82728571Y-120028571D01*
X82871428Y-120552380D02*
X82395238Y-120552380D01*
X82395238Y-119552380D01*
X82871428Y-119552380D01*
X83633333Y-120028571D02*
X83300000Y-120028571D01*
X83300000Y-120552380D02*
X83300000Y-119552380D01*
X83776190Y-119552380D01*
X84300000Y-119552380D02*
X84300000Y-119790476D01*
X84061904Y-119695238D02*
X84300000Y-119790476D01*
X84538095Y-119695238D01*
X84157142Y-119980952D02*
X84300000Y-119790476D01*
X84442857Y-119980952D01*
X85061904Y-119552380D02*
X85061904Y-119790476D01*
X84823809Y-119695238D02*
X85061904Y-119790476D01*
X85300000Y-119695238D01*
X84919047Y-119980952D02*
X85061904Y-119790476D01*
X85204761Y-119980952D01*
G04 #@! TD*
M02*
