G04 #@! TF.GenerationSoftware,KiCad,Pcbnew,(5.0.0-rc2-83-gda392728d)*
G04 #@! TF.CreationDate,2018-08-15T23:30:18-03:00*
G04 #@! TF.ProjectId,fb15,666231352E6B696361645F7063620000,rev?*
G04 #@! TF.SameCoordinates,Original*
G04 #@! TF.FileFunction,Soldermask,Bot*
G04 #@! TF.FilePolarity,Negative*
%FSLAX46Y46*%
G04 Gerber Fmt 4.6, Leading zero omitted, Abs format (unit mm)*
G04 Created by KiCad (PCBNEW (5.0.0-rc2-83-gda392728d)) date 08/15/18 23:30:18*
%MOMM*%
%LPD*%
G01*
G04 APERTURE LIST*
%ADD10C,4.050000*%
%ADD11R,1.900000X1.900000*%
%ADD12C,1.900000*%
%ADD13R,2.000000X2.000000*%
%ADD14C,2.000000*%
%ADD15O,2.000000X2.000000*%
%ADD16C,4.464000*%
%ADD17R,2.200000X2.200000*%
%ADD18C,2.200000*%
%ADD19O,2.100000X2.100000*%
%ADD20R,2.100000X2.100000*%
%ADD21R,2.400000X3.000000*%
%ADD22O,2.400000X3.000000*%
%ADD23O,1.800000X1.800000*%
%ADD24C,1.800000*%
G04 APERTURE END LIST*
D10*
G04 #@! TO.C,J3*
X178180000Y-138950000D03*
X166310000Y-138950000D03*
D11*
X167800000Y-132600000D03*
D12*
X169070000Y-130060000D03*
X170340000Y-132600000D03*
X171610000Y-130060000D03*
X172880000Y-132600000D03*
X174150000Y-130060000D03*
X175420000Y-132600000D03*
X176690000Y-130060000D03*
G04 #@! TD*
D10*
G04 #@! TO.C,J6*
X156180000Y-138950000D03*
X144310000Y-138950000D03*
D11*
X145800000Y-132600000D03*
D12*
X147070000Y-130060000D03*
X148340000Y-132600000D03*
X149610000Y-130060000D03*
X150880000Y-132600000D03*
X152150000Y-130060000D03*
X153420000Y-132600000D03*
X154690000Y-130060000D03*
G04 #@! TD*
D10*
G04 #@! TO.C,J1*
X105180000Y-138950000D03*
X93310000Y-138950000D03*
D11*
X94800000Y-132600000D03*
D12*
X96070000Y-130060000D03*
X97340000Y-132600000D03*
X98610000Y-130060000D03*
X99880000Y-132600000D03*
X101150000Y-130060000D03*
X102420000Y-132600000D03*
X103690000Y-130060000D03*
G04 #@! TD*
D13*
G04 #@! TO.C,C3*
X113800000Y-118600000D03*
D14*
X116300000Y-118600000D03*
G04 #@! TD*
D13*
G04 #@! TO.C,U1*
X119800000Y-67200000D03*
D15*
X127420000Y-84980000D03*
X119800000Y-69740000D03*
X127420000Y-82440000D03*
X119800000Y-72280000D03*
X127420000Y-79900000D03*
X119800000Y-74820000D03*
X127420000Y-77360000D03*
X119800000Y-77360000D03*
X127420000Y-74820000D03*
X119800000Y-79900000D03*
X127420000Y-72280000D03*
X119800000Y-82440000D03*
X127420000Y-69740000D03*
X119800000Y-84980000D03*
X127420000Y-67200000D03*
G04 #@! TD*
D16*
G04 #@! TO.C,REF\002A\002A*
X161300000Y-66600000D03*
G04 #@! TD*
G04 #@! TO.C,REF\002A\002A*
X161300000Y-144600000D03*
G04 #@! TD*
D14*
G04 #@! TO.C,C1*
X228300000Y-85600000D03*
D13*
X225800000Y-85600000D03*
G04 #@! TD*
D14*
G04 #@! TO.C,C2*
X225800000Y-92600000D03*
X228300000Y-92600000D03*
G04 #@! TD*
G04 #@! TO.C,C4*
X141300000Y-118600000D03*
D13*
X138800000Y-118600000D03*
G04 #@! TD*
D14*
G04 #@! TO.C,C5*
X116300000Y-97600000D03*
D13*
X113800000Y-97600000D03*
G04 #@! TD*
D14*
G04 #@! TO.C,C6*
X141300000Y-97600000D03*
D13*
X138800000Y-97600000D03*
G04 #@! TD*
D17*
G04 #@! TO.C,D1*
X218800000Y-69600000D03*
D18*
X221340000Y-69600000D03*
G04 #@! TD*
D12*
G04 #@! TO.C,J2*
X120690000Y-130060000D03*
X119420000Y-132600000D03*
X118150000Y-130060000D03*
X116880000Y-132600000D03*
X115610000Y-130060000D03*
X114340000Y-132600000D03*
X113070000Y-130060000D03*
D11*
X111800000Y-132600000D03*
D10*
X110310000Y-138950000D03*
X122180000Y-138950000D03*
G04 #@! TD*
D12*
G04 #@! TO.C,J4*
X193690000Y-130060000D03*
X192420000Y-132600000D03*
X191150000Y-130060000D03*
X189880000Y-132600000D03*
X188610000Y-130060000D03*
X187340000Y-132600000D03*
X186070000Y-130060000D03*
D11*
X184800000Y-132600000D03*
D10*
X183310000Y-138950000D03*
X195180000Y-138950000D03*
G04 #@! TD*
D12*
G04 #@! TO.C,J5*
X137690000Y-130060000D03*
X136420000Y-132600000D03*
X135150000Y-130060000D03*
X133880000Y-132600000D03*
X132610000Y-130060000D03*
X131340000Y-132600000D03*
X130070000Y-130060000D03*
D11*
X128800000Y-132600000D03*
D10*
X127310000Y-138950000D03*
X139180000Y-138950000D03*
G04 #@! TD*
G04 #@! TO.C,J7*
X212180000Y-138950000D03*
X200310000Y-138950000D03*
D11*
X201800000Y-132600000D03*
D12*
X203070000Y-130060000D03*
X204340000Y-132600000D03*
X205610000Y-130060000D03*
X206880000Y-132600000D03*
X208150000Y-130060000D03*
X209420000Y-132600000D03*
X210690000Y-130060000D03*
G04 #@! TD*
G04 #@! TO.C,J8*
X227690000Y-130060000D03*
X226420000Y-132600000D03*
X225150000Y-130060000D03*
X223880000Y-132600000D03*
X222610000Y-130060000D03*
X221340000Y-132600000D03*
X220070000Y-130060000D03*
D11*
X218800000Y-132600000D03*
D10*
X217310000Y-138950000D03*
X229180000Y-138950000D03*
G04 #@! TD*
D19*
G04 #@! TO.C,J9*
X88590000Y-119320000D03*
X86050000Y-119320000D03*
X88590000Y-116780000D03*
X86050000Y-116780000D03*
X88590000Y-114240000D03*
X86050000Y-114240000D03*
X88590000Y-111700000D03*
X86050000Y-111700000D03*
X88590000Y-109160000D03*
X86050000Y-109160000D03*
X88590000Y-106620000D03*
X86050000Y-106620000D03*
X88590000Y-104080000D03*
X86050000Y-104080000D03*
X88590000Y-101540000D03*
X86050000Y-101540000D03*
X88590000Y-99000000D03*
X86050000Y-99000000D03*
X88590000Y-96460000D03*
X86050000Y-96460000D03*
X88590000Y-93920000D03*
X86050000Y-93920000D03*
X88590000Y-91380000D03*
X86050000Y-91380000D03*
X88590000Y-88840000D03*
X86050000Y-88840000D03*
X88590000Y-86300000D03*
X86050000Y-86300000D03*
X88590000Y-83760000D03*
X86050000Y-83760000D03*
X88590000Y-81220000D03*
X86050000Y-81220000D03*
X88590000Y-78680000D03*
X86050000Y-78680000D03*
X88590000Y-76140000D03*
X86050000Y-76140000D03*
X88590000Y-73600000D03*
X86050000Y-73600000D03*
X88590000Y-71060000D03*
D20*
X86050000Y-71060000D03*
G04 #@! TD*
D21*
G04 #@! TO.C,J10*
X226800000Y-69600000D03*
D22*
X229340000Y-69600000D03*
G04 #@! TD*
D23*
G04 #@! TO.C,R1*
X229420000Y-77600000D03*
D24*
X221800000Y-77600000D03*
G04 #@! TD*
D23*
G04 #@! TO.C,R2*
X150800000Y-110620000D03*
D24*
X150800000Y-103000000D03*
G04 #@! TD*
G04 #@! TO.C,R3*
X153800000Y-103000000D03*
D23*
X153800000Y-110620000D03*
G04 #@! TD*
G04 #@! TO.C,R4*
X156800000Y-110620000D03*
D24*
X156800000Y-103000000D03*
G04 #@! TD*
D23*
G04 #@! TO.C,R5*
X159800000Y-110620000D03*
D24*
X159800000Y-103000000D03*
G04 #@! TD*
G04 #@! TO.C,R6*
X162800000Y-103000000D03*
D23*
X162800000Y-110620000D03*
G04 #@! TD*
G04 #@! TO.C,R7*
X165800000Y-110620000D03*
D24*
X165800000Y-103000000D03*
G04 #@! TD*
D23*
G04 #@! TO.C,R8*
X168800000Y-110620000D03*
D24*
X168800000Y-103000000D03*
G04 #@! TD*
G04 #@! TO.C,R9*
X171800000Y-103000000D03*
D23*
X171800000Y-110620000D03*
G04 #@! TD*
G04 #@! TO.C,R10*
X106420000Y-118600000D03*
D24*
X98800000Y-118600000D03*
G04 #@! TD*
D23*
G04 #@! TO.C,R11*
X131420000Y-118600000D03*
D24*
X123800000Y-118600000D03*
G04 #@! TD*
G04 #@! TO.C,R12*
X98800000Y-110600000D03*
D23*
X106420000Y-110600000D03*
G04 #@! TD*
G04 #@! TO.C,R13*
X118420000Y-110600000D03*
D24*
X110800000Y-110600000D03*
G04 #@! TD*
G04 #@! TO.C,R14*
X123800000Y-110600000D03*
D23*
X131420000Y-110600000D03*
G04 #@! TD*
G04 #@! TO.C,R15*
X143420000Y-110600000D03*
D24*
X135800000Y-110600000D03*
G04 #@! TD*
G04 #@! TO.C,R16*
X98800000Y-97600000D03*
D23*
X106420000Y-97600000D03*
G04 #@! TD*
D24*
G04 #@! TO.C,R17*
X123800000Y-97600000D03*
D23*
X131420000Y-97600000D03*
G04 #@! TD*
G04 #@! TO.C,R18*
X106420000Y-89600000D03*
D24*
X98800000Y-89600000D03*
G04 #@! TD*
G04 #@! TO.C,R19*
X110800000Y-89600000D03*
D23*
X118420000Y-89600000D03*
G04 #@! TD*
G04 #@! TO.C,R20*
X131420000Y-89600000D03*
D24*
X123800000Y-89600000D03*
G04 #@! TD*
G04 #@! TO.C,R21*
X135800000Y-89600000D03*
D23*
X143420000Y-89600000D03*
G04 #@! TD*
G04 #@! TO.C,R22*
X183800000Y-118220000D03*
D24*
X183800000Y-110600000D03*
G04 #@! TD*
D23*
G04 #@! TO.C,R23*
X202800000Y-118220000D03*
D24*
X202800000Y-110600000D03*
G04 #@! TD*
G04 #@! TO.C,R24*
X194800000Y-110600000D03*
D23*
X194800000Y-118220000D03*
G04 #@! TD*
D24*
G04 #@! TO.C,R25*
X213800000Y-110600000D03*
D23*
X213800000Y-118220000D03*
G04 #@! TD*
G04 #@! TO.C,R26*
X183800000Y-103220000D03*
D24*
X183800000Y-95600000D03*
G04 #@! TD*
D23*
G04 #@! TO.C,R27*
X202800000Y-103220000D03*
D24*
X202800000Y-95600000D03*
G04 #@! TD*
G04 #@! TO.C,R28*
X194800000Y-95600000D03*
D23*
X194800000Y-103220000D03*
G04 #@! TD*
D24*
G04 #@! TO.C,R29*
X213800000Y-95600000D03*
D23*
X213800000Y-103220000D03*
G04 #@! TD*
D13*
G04 #@! TO.C,U2*
X197600000Y-67800000D03*
D15*
X205220000Y-85580000D03*
X197600000Y-70340000D03*
X205220000Y-83040000D03*
X197600000Y-72880000D03*
X205220000Y-80500000D03*
X197600000Y-75420000D03*
X205220000Y-77960000D03*
X197600000Y-77960000D03*
X205220000Y-75420000D03*
X197600000Y-80500000D03*
X205220000Y-72880000D03*
X197600000Y-83040000D03*
X205220000Y-70340000D03*
X197600000Y-85580000D03*
X205220000Y-67800000D03*
G04 #@! TD*
G04 #@! TO.C,U3*
X165420000Y-77000000D03*
X157800000Y-94780000D03*
X165420000Y-79540000D03*
X157800000Y-92240000D03*
X165420000Y-82080000D03*
X157800000Y-89700000D03*
X165420000Y-84620000D03*
X157800000Y-87160000D03*
X165420000Y-87160000D03*
X157800000Y-84620000D03*
X165420000Y-89700000D03*
X157800000Y-82080000D03*
X165420000Y-92240000D03*
X157800000Y-79540000D03*
X165420000Y-94780000D03*
D13*
X157800000Y-77000000D03*
G04 #@! TD*
D16*
G04 #@! TO.C,REF\002A\002A*
X87300000Y-66600000D03*
G04 #@! TD*
G04 #@! TO.C,REF\002A\002A*
X87300000Y-123600000D03*
G04 #@! TD*
M02*
