M48
;DRILL file {KiCad (5.0.0-rc2-83-gda392728d)} date 08/15/18 23:32:09
;FORMAT={-:-/ absolute / metric / decimal}
FMAT,2
METRIC,TZ
T1C0.400
T2C0.700
T3C0.800
T4C0.900
T5C1.000
T6C1.200
T7C3.048
%
G90
G05
M71
T1
X71.Y-105.6
X72.4Y-82.6
X73.6Y-112.2
X74.4Y-105.6
X75.8Y-76.6
X76.2Y-105.4
X76.4Y-89.6
X77.8Y-93.4
X78.8Y-96.8
X91.Y-106.8
X92.6Y-73.2
X93.6Y-74.4
X95.2Y-70.4
X95.4Y-122.
X96.2Y-71.8
X97.2Y-62.
X98.Y-72.8
X98.6Y-59.8
X98.6Y-61.2
X100.4Y-58.6
X101.8Y-116.6
X102.2Y-57.8
X105.6Y-57.4
X107.Y-56.4
X107.Y-65.2
X107.Y-104.4
X108.2Y-55.
X108.2Y-64.
X109.2Y-115.
X109.6Y-53.8
X110.Y-62.6
X110.6Y-126.
X111.Y-61.2
X112.4Y-60.2
X112.4Y-113.6
X113.4Y-53.8
X115.Y-122.8
X116.2Y-58.
X116.2Y-59.4
X116.6Y-56.6
X117.4Y-102.4
X118.4Y-122.6
X119.2Y-93.6
X123.Y-66.6
X123.Y-77.4
X123.8Y-82.2
X125.Y-85.2
X131.6Y-103.4
X133.Y-115.
X135.8Y-82.6
X136.2Y-127.
X137.Y-66.4
X137.6Y-113.4
X138.Y-69.
X144.8Y-73.6
X147.2Y-108.4
X148.4Y-111.8
X151.2Y-122.4
X152.6Y-127.2
X152.8Y-121.
X156.6Y-122.8
X158.2Y-112.6
X160.6Y-124.2
X161.4Y-127.2
X163.Y-126.2
X165.Y-119.8
X165.Y-123.
X166.8Y-126.2
X168.Y-127.2
X170.6Y-124.
X175.4Y-66.2
X175.4Y-74.2
X176.Y-111.6
X176.2Y-99.4
X177.4Y-54.
X177.4Y-66.2
X177.4Y-74.6
X178.8Y-127.2
X179.Y-53.
X179.Y-66.2
X179.Y-74.8
X179.8Y-80.4
X183.2Y-125.
X185.8Y-62.2
X185.8Y-66.2
X185.8Y-80.
X186.Y-106.8
X186.Y-109.6
X187.4Y-109.8
X187.8Y-62.
X187.8Y-66.2
X188.Y-80.2
X188.6Y-120.6
X189.6Y-110.8
X189.8Y-106.4
X191.6Y-107.8
X192.8Y-123.6
X196.2Y-135.2
X198.4Y-124.8
X198.8Y-114.
X199.Y-116.
X199.8Y-118.8
X208.8Y-67.6
X209.Y-89.2
X209.2Y-120.
X210.2Y-123.6
X210.6Y-67.6
X210.6Y-89.2
X211.8Y-135.2
X215.2Y-125.
T2
X194.8Y-110.6
X194.8Y-118.22
X153.8Y-103.
X153.8Y-110.62
X110.8Y-89.6
X118.42Y-89.6
X98.8Y-97.6
X106.42Y-97.6
X98.8Y-110.6
X106.42Y-110.6
X123.8Y-97.6
X131.42Y-97.6
X202.8Y-110.6
X202.8Y-118.22
X123.8Y-110.6
X131.42Y-110.6
X123.8Y-118.6
X131.42Y-118.6
X123.8Y-89.6
X131.42Y-89.6
X194.8Y-95.6
X194.8Y-103.22
X110.8Y-110.6
X118.42Y-110.6
X156.8Y-103.
X156.8Y-110.62
X202.8Y-95.6
X202.8Y-103.22
X183.8Y-110.6
X183.8Y-118.22
X165.8Y-103.
X165.8Y-110.62
X135.8Y-110.6
X143.42Y-110.6
X98.8Y-118.6
X106.42Y-118.6
X213.8Y-110.6
X213.8Y-118.22
X98.8Y-89.6
X106.42Y-89.6
X162.8Y-103.
X162.8Y-110.62
X150.8Y-103.
X150.8Y-110.62
X168.8Y-103.
X168.8Y-110.62
X135.8Y-89.6
X143.42Y-89.6
X183.8Y-95.6
X183.8Y-103.22
X213.8Y-95.6
X213.8Y-103.22
X221.8Y-77.6
X229.42Y-77.6
X171.8Y-103.
X171.8Y-110.62
X159.8Y-103.
X159.8Y-110.62
T3
X113.8Y-118.6
X116.3Y-118.6
X113.8Y-97.6
X116.3Y-97.6
X138.8Y-97.6
X141.3Y-97.6
X119.8Y-67.2
X119.8Y-69.74
X119.8Y-72.28
X119.8Y-74.82
X119.8Y-77.36
X119.8Y-79.9
X119.8Y-82.44
X119.8Y-84.98
X127.42Y-67.2
X127.42Y-69.74
X127.42Y-72.28
X127.42Y-74.82
X127.42Y-77.36
X127.42Y-79.9
X127.42Y-82.44
X127.42Y-84.98
X157.8Y-77.
X157.8Y-79.54
X157.8Y-82.08
X157.8Y-84.62
X157.8Y-87.16
X157.8Y-89.7
X157.8Y-92.24
X157.8Y-94.78
X165.42Y-77.
X165.42Y-79.54
X165.42Y-82.08
X165.42Y-84.62
X165.42Y-87.16
X165.42Y-89.7
X165.42Y-92.24
X165.42Y-94.78
X138.8Y-118.6
X141.3Y-118.6
X225.8Y-85.6
X228.3Y-85.6
X197.6Y-67.8
X197.6Y-70.34
X197.6Y-72.88
X197.6Y-75.42
X197.6Y-77.96
X197.6Y-80.5
X197.6Y-83.04
X197.6Y-85.58
X205.22Y-67.8
X205.22Y-70.34
X205.22Y-72.88
X205.22Y-75.42
X205.22Y-77.96
X205.22Y-80.5
X205.22Y-83.04
X205.22Y-85.58
X225.8Y-92.6
X228.3Y-92.6
T4
X128.8Y-132.6
X130.07Y-130.06
X131.34Y-132.6
X132.61Y-130.06
X133.88Y-132.6
X135.15Y-130.06
X136.42Y-132.6
X137.69Y-130.06
X201.8Y-132.6
X203.07Y-130.06
X204.34Y-132.6
X205.61Y-130.06
X206.88Y-132.6
X208.15Y-130.06
X209.42Y-132.6
X210.69Y-130.06
X218.8Y-69.6
X221.34Y-69.6
X94.8Y-132.6
X96.07Y-130.06
X97.34Y-132.6
X98.61Y-130.06
X99.88Y-132.6
X101.15Y-130.06
X102.42Y-132.6
X103.69Y-130.06
X167.8Y-132.6
X169.07Y-130.06
X170.34Y-132.6
X171.61Y-130.06
X172.88Y-132.6
X174.15Y-130.06
X175.42Y-132.6
X176.69Y-130.06
X145.8Y-132.6
X147.07Y-130.06
X148.34Y-132.6
X149.61Y-130.06
X150.88Y-132.6
X152.15Y-130.06
X153.42Y-132.6
X154.69Y-130.06
X111.8Y-132.6
X113.07Y-130.06
X114.34Y-132.6
X115.61Y-130.06
X116.88Y-132.6
X118.15Y-130.06
X119.42Y-132.6
X120.69Y-130.06
X184.8Y-132.6
X186.07Y-130.06
X187.34Y-132.6
X188.61Y-130.06
X189.88Y-132.6
X191.15Y-130.06
X192.42Y-132.6
X193.69Y-130.06
X218.8Y-132.6
X220.07Y-130.06
X221.34Y-132.6
X222.61Y-130.06
X223.88Y-132.6
X225.15Y-130.06
X226.42Y-132.6
X227.69Y-130.06
T5
X86.05Y-71.06
X86.05Y-73.6
X86.05Y-76.14
X86.05Y-78.68
X86.05Y-81.22
X86.05Y-83.76
X86.05Y-86.3
X86.05Y-88.84
X86.05Y-91.38
X86.05Y-93.92
X86.05Y-96.46
X86.05Y-99.
X86.05Y-101.54
X86.05Y-104.08
X86.05Y-106.62
X86.05Y-109.16
X86.05Y-111.7
X86.05Y-114.24
X86.05Y-116.78
X86.05Y-119.32
X88.59Y-71.06
X88.59Y-73.6
X88.59Y-76.14
X88.59Y-78.68
X88.59Y-81.22
X88.59Y-83.76
X88.59Y-86.3
X88.59Y-88.84
X88.59Y-91.38
X88.59Y-93.92
X88.59Y-96.46
X88.59Y-99.
X88.59Y-101.54
X88.59Y-104.08
X88.59Y-106.62
X88.59Y-109.16
X88.59Y-111.7
X88.59Y-114.24
X88.59Y-116.78
X88.59Y-119.32
T6
X226.8Y-69.6
X229.34Y-69.6
T7
X87.3Y-123.6
X161.3Y-66.6
X87.3Y-66.6
X161.3Y-144.6
T0
M30
